<?xml version="1.0" standalone="no"?>
<!DOCTYPE svg PUBLIC "-//W3C//DTD SVG 1.1//EN" "http://www.w3.org/Graphics/SVG/1.1/DTD/svg11.dtd" >
<svg>
<metadata>
Created by FontForge 20090914 at Thu Feb 23 17:22:22 2012
 By ffonts
created by Astigmatic One Eye&#194;&#169; 2000, All Rights Reserved.                                                       http://www.astigmatic.com/     mailto:astigma@astigmatic.com
</metadata>
<defs>
<font id="TransponderAOE" horiz-adv-x="473" >
  <font-face 
    font-family="Transponder AOE"
    font-weight="400"
    font-stretch="normal"
    units-per-em="1000"
    panose-1="0 0 4 0 0 0 0 0 0 0"
    ascent="800"
    descent="-200"
    x-height="661"
    cap-height="718"
    bbox="-1 -141 841 1004"
    underline-thickness="20"
    underline-position="-123"
    unicode-range="U+0020-U+F002"
  />
<missing-glyph horiz-adv-x="500" 
d="M63 0v800h375v-800h-375zM125 63h250v675h-250v-675z" />
    <glyph glyph-name=".notdef" horiz-adv-x="500" 
d="M63 0v800h375v-800h-375zM125 63h250v675h-250v-675z" />
    <glyph glyph-name=".null" horiz-adv-x="0" 
 />
    <glyph glyph-name="nonmarkingreturn" 
 />
    <glyph glyph-name="space" unicode=" " 
 />
    <glyph glyph-name="exclam" unicode="!" horiz-adv-x="93" 
d="M46 383l-23 -23l-23 23v284l23 23l23 -23v-284zM46 90v-43l-23 -23l-23 23v43l23 23z" />
    <glyph glyph-name="quotedbl" unicode="&#x22;" horiz-adv-x="265" 
d="M232 669v-131l-24 -23l-23 23l1 131l23 23zM45 669v-131l-23 -23l-23 23v131l23 23z" />
    <glyph glyph-name="numbersign" unicode="#" 
d="M418 386l-23 -24l-23 24v283l23 23l23 -23v-283zM232 386l-23 -24l-23 24v283l23 23l23 -23v-283zM383 359l-23 -23h-116l-23 23l23 23h116zM418 50l-23 -24l-23 24v283l23 23l23 -23v-283zM196 359l-23 -23h-116l-23 23l23 23h116zM232 50l-23 -24l-23 24v283l23 23
l23 -23v-283zM383 23l-23 -23h-116l-23 23l23 23h116zM196 23l-23 -23h-116l-23 23l23 23h116z" />
    <glyph glyph-name="dollar" unicode="$" 
d="M383 695l-23 -23h-116l-23 23l23 23h116zM196 695l-23 -23h-116l-23 23l23 23h116zM232 386l-23 -24l-23 24v283l23 23l23 -23v-283zM383 359l-23 -23h-116l-23 23l23 23h116zM418 50l-23 -24l-23 24v283l23 23l23 -23v-283zM45 386l-23 -24l-23 24v283l23 23l23 -23
v-283zM196 359l-23 -23h-116l-23 23l23 23h116zM232 50l-23 -24l-23 24v283l23 23l23 -23v-283zM383 23l-23 -23h-116l-23 23l23 23h116zM196 23l-23 -23h-116l-23 23l23 23h116z" />
    <glyph glyph-name="percent" unicode="%" 
d="M362 629l-87 -235h-34v31l87 236h34v-32zM196 695l-23 -23h-116l-23 23l23 23h116zM232 386l-23 -24l-23 24v283l23 23l23 -23v-283zM383 359l-23 -23h-116l-23 23l23 23h116zM418 50l-23 -24l-23 24v283l23 23l23 -23v-283zM45 386l-23 -24l-23 24v283l23 23l23 -23
v-283zM196 359l-23 -23h-116l-23 23l23 23h116zM232 50l-23 -24l-23 24v283l23 23l23 -23v-283zM383 23l-23 -23h-116l-23 23l23 23h116zM176 293l-87 -235h-34v32l87 235h34v-32z" />
    <glyph glyph-name="ampersand" unicode="&#x26;" 
d="M196 695l-23 -23h-116l-23 23l23 23h116zM232 386l-23 -24l-23 24v283l23 23l23 -23v-283zM176 394h-34l-87 235v32h34l87 -236v-31zM418 50l-23 -24l-23 24v283l23 23l23 -23v-283zM362 58h-34l-87 235v32h34l87 -235v-32zM196 359l-23 -23h-116l-23 23l23 23h116z
M383 23l-23 -23h-116l-23 23l23 23h116zM45 50l-23 -24l-23 24v283l23 23l23 -23v-283zM196 23l-23 -23h-116l-23 23l23 23h116z" />
    <glyph glyph-name="quotesingle" unicode="'" horiz-adv-x="95" 
d="M47 669v-131l-23 -23l-23 23v131l23 23z" />
    <glyph glyph-name="parenleft" unicode="(" 
d="M362 629l-87 -235h-34v31l87 236h34v-32zM362 58h-34l-87 235v32h34l87 -235v-32z" />
    <glyph glyph-name="parenright" unicode=")" 
d="M176 394h-34l-87 235v32h34l87 -236v-31zM176 293l-87 -235h-34v32l87 235h34v-32z" />
    <glyph glyph-name="asterisk" unicode="*" 
d="M362 629l-87 -235h-34v31l87 236h34v-32zM232 386l-23 -24l-23 24v283l23 23l23 -23v-283zM383 359l-23 -23h-116l-23 23l23 23h116zM176 394h-34l-87 235v32h34l87 -236v-31zM362 58h-34l-87 235v32h34l87 -235v-32zM196 359l-23 -23h-116l-23 23l23 23h116zM232 50
l-23 -24l-23 24v283l23 23l23 -23v-283zM176 293l-87 -235h-34v32l87 235h34v-32z" />
    <glyph glyph-name="plus" unicode="+" 
d="M232 386l-23 -24l-23 24v283l23 23l23 -23v-283zM383 359l-23 -23h-116l-23 23l23 23h116zM196 359l-23 -23h-116l-23 23l23 23h116zM232 50l-23 -24l-23 24v283l23 23l23 -23v-283z" />
    <glyph glyph-name="comma" unicode="," horiz-adv-x="98" 
d="M45 180v-130l-23 -24l-23 24v130l23 24z" />
    <glyph glyph-name="hyphen" unicode="-" horiz-adv-x="289" 
d="M196 359l-23 -23h-116l-23 23l23 23h116z" />
    <glyph glyph-name="hyphen" unicode="&#x2010;" horiz-adv-x="289" 
d="M196 359l-23 -23h-116l-23 23l23 23h116z" />
    <glyph glyph-name="period" unicode="." horiz-adv-x="95" 
d="M45 92v-42l-23 -24l-23 24v42l23 23z" />
    <glyph glyph-name="slash" unicode="/" 
d="M362 629l-87 -235h-34v31l87 236h34v-32zM176 293l-87 -235h-34v32l87 235h34v-32z" />
    <glyph glyph-name="zero" unicode="0" 
d="M383 695l-23 -23h-116l-23 23l23 23h116zM418 386l-23 -24l-23 24v283l23 23l23 -23v-283zM362 629l-87 -235h-34v31l87 236h34v-32zM196 695l-23 -23h-116l-23 23l23 23h116zM418 50l-23 -24l-23 24v283l23 23l23 -23v-283zM45 386l-23 -24l-23 24v283l23 23l23 -23
v-283zM383 23l-23 -23h-116l-23 23l23 23h116zM176 293l-87 -235h-34v32l87 235h34v-32zM45 50l-23 -24l-23 24v283l23 23l23 -23v-283zM196 23l-23 -23h-116l-23 23l23 23h116z" />
    <glyph glyph-name="one" unicode="1" 
d="M196 695l-23 -23h-116l-23 23l23 23h116zM232 386l-23 -24l-23 24v283l23 23l23 -23v-283zM232 50l-23 -24l-23 24v283l23 23l23 -23v-283zM383 23l-23 -23h-116l-23 23l23 23h116zM196 23l-23 -23h-116l-23 23l23 23h116z" />
    <glyph glyph-name="two" unicode="2" 
d="M383 695l-23 -23h-116l-23 23l23 23h116zM418 386l-23 -24l-23 24v283l23 23l23 -23v-283zM196 695l-23 -23h-116l-23 23l23 23h116zM383 359l-23 -23h-116l-23 23l23 23h116zM196 359l-23 -23h-116l-23 23l23 23h116zM383 23l-23 -23h-116l-23 23l23 23h116zM45 50
l-23 -24l-23 24v283l23 23l23 -23v-283zM196 23l-23 -23h-116l-23 23l23 23h116z" />
    <glyph glyph-name="three" unicode="3" 
d="M383 695l-23 -23h-116l-23 23l23 23h116zM418 386l-23 -24l-23 24v283l23 23l23 -23v-283zM196 695l-23 -23h-116l-23 23l23 23h116zM383 359l-23 -23h-116l-23 23l23 23h116zM418 50l-23 -24l-23 24v283l23 23l23 -23v-283zM196 359l-23 -23h-116l-23 23l23 23h116z
M383 23l-23 -23h-116l-23 23l23 23h116zM196 23l-23 -23h-116l-23 23l23 23h116z" />
    <glyph glyph-name="four" unicode="4" 
d="M418 386l-23 -24l-23 24v283l23 23l23 -23v-283zM383 359l-23 -23h-116l-23 23l23 23h116zM418 50l-23 -24l-23 24v283l23 23l23 -23v-283zM45 386l-23 -24l-23 24v283l23 23l23 -23v-283zM196 359l-23 -23h-116l-23 23l23 23h116z" />
    <glyph glyph-name="five" unicode="5" 
d="M383 695l-23 -23h-116l-23 23l23 23h116zM196 695l-23 -23h-116l-23 23l23 23h116zM383 359l-23 -23h-116l-23 23l23 23h116zM418 50l-23 -24l-23 24v283l23 23l23 -23v-283zM45 386l-23 -24l-23 24v283l23 23l23 -23v-283zM196 359l-23 -23h-116l-23 23l23 23h116z
M383 23l-23 -23h-116l-23 23l23 23h116zM196 23l-23 -23h-116l-23 23l23 23h116z" />
    <glyph glyph-name="six" unicode="6" 
d="M383 695l-23 -23h-116l-23 23l23 23h116zM196 695l-23 -23h-116l-23 23l23 23h116zM383 359l-23 -23h-116l-23 23l23 23h116zM418 50l-23 -24l-23 24v283l23 23l23 -23v-283zM45 386l-23 -24l-23 24v283l23 23l23 -23v-283zM196 359l-23 -23h-116l-23 23l23 23h116z
M383 23l-23 -23h-116l-23 23l23 23h116zM45 50l-23 -24l-23 24v283l23 23l23 -23v-283zM196 23l-23 -23h-116l-23 23l23 23h116z" />
    <glyph glyph-name="seven" unicode="7" 
d="M383 695l-23 -23h-116l-23 23l23 23h116zM362 629l-87 -235h-34v31l87 236h34v-32zM196 695l-23 -23h-116l-23 23l23 23h116zM176 293l-87 -235h-34v32l87 235h34v-32z" />
    <glyph glyph-name="eight" unicode="8" 
d="M383 695l-23 -23h-116l-23 23l23 23h116zM418 386l-23 -24l-23 24v283l23 23l23 -23v-283zM196 695l-23 -23h-116l-23 23l23 23h116zM383 359l-23 -23h-116l-23 23l23 23h116zM418 50l-23 -24l-23 24v283l23 23l23 -23v-283zM45 386l-23 -24l-23 24v283l23 23l23 -23
v-283zM196 359l-23 -23h-116l-23 23l23 23h116zM383 23l-23 -23h-116l-23 23l23 23h116zM45 50l-23 -24l-23 24v283l23 23l23 -23v-283zM196 23l-23 -23h-116l-23 23l23 23h116z" />
    <glyph glyph-name="nine" unicode="9" 
d="M383 695l-23 -23h-116l-23 23l23 23h116zM418 386l-23 -24l-23 24v283l23 23l23 -23v-283zM196 695l-23 -23h-116l-23 23l23 23h116zM383 359l-23 -23h-116l-23 23l23 23h116zM418 50l-23 -24l-23 24v283l23 23l23 -23v-283zM45 386l-23 -24l-23 24v283l23 23l23 -23
v-283zM196 359l-23 -23h-116l-23 23l23 23h116zM383 23l-23 -23h-116l-23 23l23 23h116zM196 23l-23 -23h-116l-23 23l23 23h116z" />
    <glyph glyph-name="colon" unicode=":" horiz-adv-x="98" 
d="M45 428v-42l-23 -24l-23 24v42l23 23zM45 92v-42l-23 -24l-23 24v42l23 23z" />
    <glyph glyph-name="semicolon" unicode=";" horiz-adv-x="95" 
d="M45 428v-42l-23 -24l-23 24v42l23 23zM45 180v-130l-23 -24l-23 24v130l23 24z" />
    <glyph glyph-name="less" unicode="&#x3c;" horiz-adv-x="301" 
d="M191 629l-87 -235h-34v31l87 236h34v-32zM211 359l-23 -23h-115l-23 23l23 23h115z" />
    <glyph glyph-name="equal" unicode="=" 
d="M383 359l-23 -23h-116l-23 23l23 23h116zM196 359l-23 -23h-116l-23 23l23 23h116zM383 23l-23 -23h-116l-23 23l23 23h116zM196 23l-23 -23h-116l-23 23l23 23h116z" />
    <glyph glyph-name="greater" unicode="&#x3e;" horiz-adv-x="301" 
d="M194 394h-34l-87 235v32h34l87 -236v-31zM215 359l-24 -23h-115l-23 23l23 23h115z" />
    <glyph glyph-name="question" unicode="?" 
d="M383 695l-23 -23h-116l-23 23l23 23h116zM418 386l-23 -24l-23 24v283l23 23l23 -23v-283zM196 695l-23 -23h-116l-23 23l23 23h116zM383 359l-23 -23h-116l-23 23l23 23h116zM232 92v-42l-23 -24l-23 24v42l23 23z" />
    <glyph glyph-name="at" unicode="@" 
d="M383 695l-23 -23h-116l-23 23l23 23h116zM418 386l-23 -24l-23 24v283l23 23l23 -23v-283zM196 695l-23 -23h-116l-23 23l23 23h116zM383 359l-23 -23h-116l-23 23l23 23h116zM418 50l-23 -24l-23 24v283l23 23l23 -23v-283zM45 386l-23 -24l-23 24v283l23 23l23 -23
v-283zM232 50l-23 -24l-23 24v283l23 23l23 -23v-283zM383 23l-23 -23h-116l-23 23l23 23h116zM45 50l-23 -24l-23 24v283l23 23l23 -23v-283z" />
    <glyph glyph-name="A" unicode="A" 
d="M383 695l-23 -23h-116l-23 23l23 23h116zM418 386l-23 -24l-23 24v283l23 23l23 -23v-283zM196 695l-23 -23h-116l-23 23l23 23h116zM383 359l-23 -23h-116l-23 23l23 23h116zM418 50l-23 -24l-23 24v283l23 23l23 -23v-283zM45 386l-23 -24l-23 24v283l23 23l23 -23
v-283zM196 359l-23 -23h-116l-23 23l23 23h116zM45 50l-23 -24l-23 24v283l23 23l23 -23v-283z" />
    <glyph glyph-name="B" unicode="B" 
d="M383 695l-23 -23h-116l-23 23l23 23h116zM418 386l-23 -24l-23 24v283l23 23l23 -23v-283zM196 695l-23 -23h-116l-23 23l23 23h116zM232 386l-23 -24l-23 24v283l23 23l23 -23v-283zM383 359l-23 -23h-116l-23 23l23 23h116zM418 50l-23 -24l-23 24v283l23 23l23 -23
v-283zM232 50l-23 -24l-23 24v283l23 23l23 -23v-283zM383 23l-23 -23h-116l-23 23l23 23h116zM196 23l-23 -23h-116l-23 23l23 23h116z" />
    <glyph glyph-name="C" unicode="C" 
d="M383 695l-23 -23h-116l-23 23l23 23h116zM196 695l-23 -23h-116l-23 23l23 23h116zM45 386l-23 -24l-23 24v283l23 23l23 -23v-283zM383 23l-23 -23h-116l-23 23l23 23h116zM45 50l-23 -24l-23 24v283l23 23l23 -23v-283zM196 23l-23 -23h-116l-23 23l23 23h116z" />
    <glyph glyph-name="D" unicode="D" 
d="M383 695l-23 -23h-116l-23 23l23 23h116zM418 386l-23 -24l-23 24v283l23 23l23 -23v-283zM196 695l-23 -23h-116l-23 23l23 23h116zM232 386l-23 -24l-23 24v283l23 23l23 -23v-283zM418 50l-23 -24l-23 24v283l23 23l23 -23v-283zM232 50l-23 -24l-23 24v283l23 23
l23 -23v-283zM383 23l-23 -23h-116l-23 23l23 23h116zM196 23l-23 -23h-116l-23 23l23 23h116z" />
    <glyph glyph-name="E" unicode="E" 
d="M383 695l-23 -23h-116l-23 23l23 23h116zM196 695l-23 -23h-116l-23 23l23 23h116zM383 359l-23 -23h-116l-23 23l23 23h116zM45 386l-23 -24l-23 24v283l23 23l23 -23v-283zM196 359l-23 -23h-116l-23 23l23 23h116zM383 23l-23 -23h-116l-23 23l23 23h116zM45 50
l-23 -24l-23 24v283l23 23l23 -23v-283zM196 23l-23 -23h-116l-23 23l23 23h116z" />
    <glyph glyph-name="F" unicode="F" 
d="M383 695l-23 -23h-116l-23 23l23 23h116zM196 695l-23 -23h-116l-23 23l23 23h116zM383 359l-23 -23h-116l-23 23l23 23h116zM45 386l-23 -24l-23 24v283l23 23l23 -23v-283zM196 359l-23 -23h-116l-23 23l23 23h116zM45 50l-23 -24l-23 24v283l23 23l23 -23v-283z" />
    <glyph glyph-name="G" unicode="G" 
d="M383 695l-23 -23h-116l-23 23l23 23h116zM196 695l-23 -23h-116l-23 23l23 23h116zM383 359l-23 -23h-116l-23 23l23 23h116zM418 50l-23 -24l-23 24v283l23 23l23 -23v-283zM45 386l-23 -24l-23 24v283l23 23l23 -23v-283zM383 23l-23 -23h-116l-23 23l23 23h116zM45 50
l-23 -24l-23 24v283l23 23l23 -23v-283zM196 23l-23 -23h-116l-23 23l23 23h116z" />
    <glyph glyph-name="H" unicode="H" 
d="M418 386l-23 -24l-23 24v283l23 23l23 -23v-283zM383 359l-23 -23h-116l-23 23l23 23h116zM418 50l-23 -24l-23 24v283l23 23l23 -23v-283zM45 386l-23 -24l-23 24v283l23 23l23 -23v-283zM196 359l-23 -23h-116l-23 23l23 23h116zM45 50l-23 -24l-23 24v283l23 23
l23 -23v-283z" />
    <glyph glyph-name="I" unicode="I" 
d="M383 695l-23 -23h-116l-23 23l23 23h116zM196 695l-23 -23h-116l-23 23l23 23h116zM232 386l-23 -24l-23 24v283l23 23l23 -23v-283zM232 50l-23 -24l-23 24v283l23 23l23 -23v-283zM383 23l-23 -23h-116l-23 23l23 23h116zM196 23l-23 -23h-116l-23 23l23 23h116z" />
    <glyph glyph-name="J" unicode="J" 
d="M418 386l-23 -24l-23 24v283l23 23l23 -23v-283zM418 50l-23 -24l-23 24v283l23 23l23 -23v-283zM383 23l-23 -23h-116l-23 23l23 23h116zM45 50l-23 -24l-23 24v283l23 23l23 -23v-283zM196 23l-23 -23h-116l-23 23l23 23h116z" />
    <glyph glyph-name="K" unicode="K" 
d="M362 629l-87 -235h-34v31l87 236h34v-32zM45 386l-23 -24l-23 24v283l23 23l23 -23v-283zM362 58h-34l-87 235v32h34l87 -235v-32zM196 359l-23 -23h-116l-23 23l23 23h116zM45 50l-23 -24l-23 24v283l23 23l23 -23v-283z" />
    <glyph glyph-name="L" unicode="L" 
d="M45 386l-23 -24l-23 24v283l23 23l23 -23v-283zM383 23l-23 -23h-116l-23 23l23 23h116zM45 50l-23 -24l-23 24v283l23 23l23 -23v-283zM196 23l-23 -23h-116l-23 23l23 23h116z" />
    <glyph glyph-name="M" unicode="M" 
d="M418 386l-23 -24l-23 24v283l23 23l23 -23v-283zM362 629l-87 -235h-34v31l87 236h34v-32zM176 394h-34l-87 235v32h34l87 -236v-31zM418 50l-23 -24l-23 24v283l23 23l23 -23v-283zM45 386l-23 -24l-23 24v283l23 23l23 -23v-283zM45 50l-23 -24l-23 24v283l23 23
l23 -23v-283z" />
    <glyph glyph-name="N" unicode="N" 
d="M418 386l-23 -24l-23 24v283l23 23l23 -23v-283zM176 394h-34l-87 235v32h34l87 -236v-31zM418 50l-23 -24l-23 24v283l23 23l23 -23v-283zM45 386l-23 -24l-23 24v283l23 23l23 -23v-283zM362 58h-34l-87 235v32h34l87 -235v-32zM45 50l-23 -24l-23 24v283l23 23l23 -23
v-283z" />
    <glyph glyph-name="O" unicode="O" 
d="M383 695l-23 -23h-116l-23 23l23 23h116zM418 386l-23 -24l-23 24v283l23 23l23 -23v-283zM196 695l-23 -23h-116l-23 23l23 23h116zM418 50l-23 -24l-23 24v283l23 23l23 -23v-283zM45 386l-23 -24l-23 24v283l23 23l23 -23v-283zM383 23l-23 -23h-116l-23 23l23 23h116
zM45 50l-23 -24l-23 24v283l23 23l23 -23v-283zM196 23l-23 -23h-116l-23 23l23 23h116z" />
    <glyph glyph-name="P" unicode="P" 
d="M383 695l-23 -23h-116l-23 23l23 23h116zM418 386l-23 -24l-23 24v283l23 23l23 -23v-283zM196 695l-23 -23h-116l-23 23l23 23h116zM383 359l-23 -23h-116l-23 23l23 23h116zM45 386l-23 -24l-23 24v283l23 23l23 -23v-283zM196 359l-23 -23h-116l-23 23l23 23h116z
M45 50l-23 -24l-23 24v283l23 23l23 -23v-283z" />
    <glyph glyph-name="Q" unicode="Q" 
d="M383 695l-23 -23h-116l-23 23l23 23h116zM418 386l-23 -24l-23 24v283l23 23l23 -23v-283zM196 695l-23 -23h-116l-23 23l23 23h116zM418 50l-23 -24l-23 24v283l23 23l23 -23v-283zM45 386l-23 -24l-23 24v283l23 23l23 -23v-283zM362 58h-34l-87 235v32h34l87 -235v-32
zM383 23l-23 -23h-116l-23 23l23 23h116zM45 50l-23 -24l-23 24v283l23 23l23 -23v-283zM196 23l-23 -23h-116l-23 23l23 23h116z" />
    <glyph glyph-name="R" unicode="R" 
d="M383 695l-23 -23h-116l-23 23l23 23h116zM418 386l-23 -24l-23 24v283l23 23l23 -23v-283zM196 695l-23 -23h-116l-23 23l23 23h116zM383 359l-23 -23h-116l-23 23l23 23h116zM45 386l-23 -24l-23 24v283l23 23l23 -23v-283zM362 58h-34l-87 235v32h34l87 -235v-32z
M196 359l-23 -23h-116l-23 23l23 23h116zM45 50l-23 -24l-23 24v283l23 23l23 -23v-283z" />
    <glyph glyph-name="S" unicode="S" 
d="M383 695l-23 -23h-116l-23 23l23 23h116zM196 695l-23 -23h-116l-23 23l23 23h116zM383 359l-23 -23h-116l-23 23l23 23h116zM418 50l-23 -24l-23 24v283l23 23l23 -23v-283zM45 386l-23 -24l-23 24v283l23 23l23 -23v-283zM196 359l-23 -23h-116l-23 23l23 23h116z
M383 23l-23 -23h-116l-23 23l23 23h116zM196 23l-23 -23h-116l-23 23l23 23h116z" />
    <glyph glyph-name="T" unicode="T" 
d="M383 695l-23 -23h-116l-23 23l23 23h116zM196 695l-23 -23h-116l-23 23l23 23h116zM232 386l-23 -24l-23 24v283l23 23l23 -23v-283zM232 50l-23 -24l-23 24v283l23 23l23 -23v-283z" />
    <glyph glyph-name="U" unicode="U" 
d="M418 386l-23 -24l-23 24v283l23 23l23 -23v-283zM418 50l-23 -24l-23 24v283l23 23l23 -23v-283zM45 386l-23 -24l-23 24v283l23 23l23 -23v-283zM383 23l-23 -23h-116l-23 23l23 23h116zM45 50l-23 -24l-23 24v283l23 23l23 -23v-283zM196 23l-23 -23h-116l-23 23l23 23
h116z" />
    <glyph glyph-name="V" unicode="V" 
d="M418 386l-23 -24l-23 24v283l23 23l23 -23v-283zM45 386l-23 -24l-23 24v283l23 23l23 -23v-283zM362 293l-87 -235h-34v32l87 235h34v-32zM176 58h-34l-87 235v32h34l87 -235v-32z" />
    <glyph glyph-name="W" unicode="W" 
d="M418 386l-23 -24l-23 24v283l23 23l23 -23v-283zM418 50l-23 -24l-23 24v283l23 23l23 -23v-283zM45 386l-23 -24l-23 24v283l23 23l23 -23v-283zM362 58h-34l-87 235v32h34l87 -235v-32zM176 293l-87 -235h-34v32l87 235h34v-32zM45 50l-23 -24l-23 24v283l23 23l23 -23
v-283z" />
    <glyph glyph-name="X" unicode="X" 
d="M362 629l-87 -235h-34v31l87 236h34v-32zM176 394h-34l-87 235v32h34l87 -236v-31zM362 58h-34l-87 235v32h34l87 -235v-32zM176 293l-87 -235h-34v32l87 235h34v-32z" />
    <glyph glyph-name="Y" unicode="Y" 
d="M418 386l-23 -24l-23 24v283l23 23l23 -23v-283zM383 359l-23 -23h-116l-23 23l23 23h116zM45 386l-23 -24l-23 24v283l23 23l23 -23v-283zM196 359l-23 -23h-116l-23 23l23 23h116zM232 50l-23 -24l-23 24v283l23 23l23 -23v-283z" />
    <glyph glyph-name="Z" unicode="Z" 
d="M383 695l-23 -23h-116l-23 23l23 23h116zM362 629l-87 -235h-34v31l87 236h34v-32zM196 695l-23 -23h-116l-23 23l23 23h116zM383 23l-23 -23h-116l-23 23l23 23h116zM176 293l-87 -235h-34v32l87 235h34v-32zM196 23l-23 -23h-116l-23 23l23 23h116z" />
    <glyph glyph-name="bracketleft" unicode="[" 
d="M196 695l-23 -23h-116l-23 23l23 23h116zM45 386l-23 -24l-23 24v283l23 23l23 -23v-283zM45 50l-23 -24l-23 24v283l23 23l23 -23v-283zM196 23l-23 -23h-116l-23 23l23 23h116z" />
    <glyph glyph-name="backslash" unicode="\" 
d="M176 394h-34l-87 235v32h34l87 -236v-31zM362 58h-34l-87 235v32h34l87 -235v-32z" />
    <glyph glyph-name="bracketright" unicode="]" 
d="M383 695l-23 -23h-116l-23 23l23 23h116zM418 386l-23 -24l-23 24v283l23 23l23 -23v-283zM418 50l-23 -24l-23 24v283l23 23l23 -23v-283zM383 23l-23 -23h-116l-23 23l23 23h116z" />
    <glyph glyph-name="asciicircum" unicode="^" 
d="M362 58h-34l-87 235v32h34l87 -235v-32zM176 293l-87 -235h-34v32l87 235h34v-32z" />
    <glyph glyph-name="underscore" unicode="_" 
d="M383 23l-23 -23h-116l-23 23l23 23h116zM196 23l-23 -23h-116l-23 23l23 23h116z" />
    <glyph glyph-name="grave" unicode="`" horiz-adv-x="243" 
d="M193 778h-33l-92 93v32h32l93 -92v-33z" />
    <glyph glyph-name="a" unicode="a" 
d="M383 695l-23 -23h-116l-23 23l23 23h116zM418 386l-23 -24l-23 24v283l23 23l23 -23v-283zM196 695l-23 -23h-116l-23 23l23 23h116zM383 359l-23 -23h-116l-23 23l23 23h116zM418 50l-23 -24l-23 24v283l23 23l23 -23v-283zM45 386l-23 -24l-23 24v283l23 23l23 -23
v-283zM196 359l-23 -23h-116l-23 23l23 23h116zM45 50l-23 -24l-23 24v283l23 23l23 -23v-283z" />
    <glyph glyph-name="b" unicode="b" 
d="M383 695l-23 -23h-116l-23 23l23 23h116zM418 386l-23 -24l-23 24v283l23 23l23 -23v-283zM196 695l-23 -23h-116l-23 23l23 23h116zM232 386l-23 -24l-23 24v283l23 23l23 -23v-283zM383 359l-23 -23h-116l-23 23l23 23h116zM418 50l-23 -24l-23 24v283l23 23l23 -23
v-283zM232 50l-23 -24l-23 24v283l23 23l23 -23v-283zM383 23l-23 -23h-116l-23 23l23 23h116zM196 23l-23 -23h-116l-23 23l23 23h116z" />
    <glyph glyph-name="c" unicode="c" 
d="M383 695l-23 -23h-116l-23 23l23 23h116zM196 695l-23 -23h-116l-23 23l23 23h116zM45 386l-23 -24l-23 24v283l23 23l23 -23v-283zM383 23l-23 -23h-116l-23 23l23 23h116zM45 50l-23 -24l-23 24v283l23 23l23 -23v-283zM196 23l-23 -23h-116l-23 23l23 23h116z" />
    <glyph glyph-name="d" unicode="d" 
d="M383 695l-23 -23h-116l-23 23l23 23h116zM418 386l-23 -24l-23 24v283l23 23l23 -23v-283zM196 695l-23 -23h-116l-23 23l23 23h116zM232 386l-23 -24l-23 24v283l23 23l23 -23v-283zM418 50l-23 -24l-23 24v283l23 23l23 -23v-283zM232 50l-23 -24l-23 24v283l23 23
l23 -23v-283zM383 23l-23 -23h-116l-23 23l23 23h116zM196 23l-23 -23h-116l-23 23l23 23h116z" />
    <glyph glyph-name="e" unicode="e" 
d="M383 695l-23 -23h-116l-23 23l23 23h116zM196 695l-23 -23h-116l-23 23l23 23h116zM383 359l-23 -23h-116l-23 23l23 23h116zM45 386l-23 -24l-23 24v283l23 23l23 -23v-283zM196 359l-23 -23h-116l-23 23l23 23h116zM383 23l-23 -23h-116l-23 23l23 23h116zM45 50
l-23 -24l-23 24v283l23 23l23 -23v-283zM196 23l-23 -23h-116l-23 23l23 23h116z" />
    <glyph glyph-name="f" unicode="f" 
d="M383 695l-23 -23h-116l-23 23l23 23h116zM196 695l-23 -23h-116l-23 23l23 23h116zM383 359l-23 -23h-116l-23 23l23 23h116zM45 386l-23 -24l-23 24v283l23 23l23 -23v-283zM196 359l-23 -23h-116l-23 23l23 23h116zM45 50l-23 -24l-23 24v283l23 23l23 -23v-283z" />
    <glyph glyph-name="g" unicode="g" 
d="M383 695l-23 -23h-116l-23 23l23 23h116zM196 695l-23 -23h-116l-23 23l23 23h116zM383 359l-23 -23h-116l-23 23l23 23h116zM418 50l-23 -24l-23 24v283l23 23l23 -23v-283zM45 386l-23 -24l-23 24v283l23 23l23 -23v-283zM383 23l-23 -23h-116l-23 23l23 23h116zM45 50
l-23 -24l-23 24v283l23 23l23 -23v-283zM196 23l-23 -23h-116l-23 23l23 23h116z" />
    <glyph glyph-name="h" unicode="h" 
d="M418 386l-23 -24l-23 24v283l23 23l23 -23v-283zM383 359l-23 -23h-116l-23 23l23 23h116zM418 50l-23 -24l-23 24v283l23 23l23 -23v-283zM45 386l-23 -24l-23 24v283l23 23l23 -23v-283zM196 359l-23 -23h-116l-23 23l23 23h116zM45 50l-23 -24l-23 24v283l23 23
l23 -23v-283z" />
    <glyph glyph-name="i" unicode="i" 
d="M383 695l-23 -23h-116l-23 23l23 23h116zM196 695l-23 -23h-116l-23 23l23 23h116zM232 386l-23 -24l-23 24v283l23 23l23 -23v-283zM232 50l-23 -24l-23 24v283l23 23l23 -23v-283zM383 23l-23 -23h-116l-23 23l23 23h116zM196 23l-23 -23h-116l-23 23l23 23h116z" />
    <glyph glyph-name="j" unicode="j" 
d="M418 386l-23 -24l-23 24v283l23 23l23 -23v-283zM418 50l-23 -24l-23 24v283l23 23l23 -23v-283zM383 23l-23 -23h-116l-23 23l23 23h116zM45 50l-23 -24l-23 24v283l23 23l23 -23v-283zM196 23l-23 -23h-116l-23 23l23 23h116z" />
    <glyph glyph-name="k" unicode="k" 
d="M362 629l-87 -235h-34v31l87 236h34v-32zM45 386l-23 -24l-23 24v283l23 23l23 -23v-283zM362 58h-34l-87 235v32h34l87 -235v-32zM196 359l-23 -23h-116l-23 23l23 23h116zM45 50l-23 -24l-23 24v283l23 23l23 -23v-283z" />
    <glyph glyph-name="l" unicode="l" 
d="M45 386l-23 -24l-23 24v283l23 23l23 -23v-283zM383 23l-23 -23h-116l-23 23l23 23h116zM45 50l-23 -24l-23 24v283l23 23l23 -23v-283zM196 23l-23 -23h-116l-23 23l23 23h116z" />
    <glyph glyph-name="m" unicode="m" 
d="M418 386l-23 -24l-23 24v283l23 23l23 -23v-283zM362 629l-87 -235h-34v31l87 236h34v-32zM176 394h-34l-87 235v32h34l87 -236v-31zM418 50l-23 -24l-23 24v283l23 23l23 -23v-283zM45 386l-23 -24l-23 24v283l23 23l23 -23v-283zM45 50l-23 -24l-23 24v283l23 23
l23 -23v-283z" />
    <glyph glyph-name="n" unicode="n" 
d="M418 386l-23 -24l-23 24v283l23 23l23 -23v-283zM176 394h-34l-87 235v32h34l87 -236v-31zM418 50l-23 -24l-23 24v283l23 23l23 -23v-283zM45 386l-23 -24l-23 24v283l23 23l23 -23v-283zM362 58h-34l-87 235v32h34l87 -235v-32zM45 50l-23 -24l-23 24v283l23 23l23 -23
v-283z" />
    <glyph glyph-name="o" unicode="o" 
d="M383 695l-23 -23h-116l-23 23l23 23h116zM418 386l-23 -24l-23 24v283l23 23l23 -23v-283zM196 695l-23 -23h-116l-23 23l23 23h116zM418 50l-23 -24l-23 24v283l23 23l23 -23v-283zM45 386l-23 -24l-23 24v283l23 23l23 -23v-283zM383 23l-23 -23h-116l-23 23l23 23h116
zM45 50l-23 -24l-23 24v283l23 23l23 -23v-283zM196 23l-23 -23h-116l-23 23l23 23h116z" />
    <glyph glyph-name="p" unicode="p" 
d="M383 695l-23 -23h-116l-23 23l23 23h116zM418 386l-23 -24l-23 24v283l23 23l23 -23v-283zM196 695l-23 -23h-116l-23 23l23 23h116zM383 359l-23 -23h-116l-23 23l23 23h116zM45 386l-23 -24l-23 24v283l23 23l23 -23v-283zM196 359l-23 -23h-116l-23 23l23 23h116z
M45 50l-23 -24l-23 24v283l23 23l23 -23v-283z" />
    <glyph glyph-name="q" unicode="q" 
d="M383 695l-23 -23h-116l-23 23l23 23h116zM418 386l-23 -24l-23 24v283l23 23l23 -23v-283zM196 695l-23 -23h-116l-23 23l23 23h116zM418 50l-23 -24l-23 24v283l23 23l23 -23v-283zM45 386l-23 -24l-23 24v283l23 23l23 -23v-283zM362 58h-34l-87 235v32h34l87 -235v-32
zM383 23l-23 -23h-116l-23 23l23 23h116zM45 50l-23 -24l-23 24v283l23 23l23 -23v-283zM196 23l-23 -23h-116l-23 23l23 23h116z" />
    <glyph glyph-name="r" unicode="r" 
d="M383 695l-23 -23h-116l-23 23l23 23h116zM418 386l-23 -24l-23 24v283l23 23l23 -23v-283zM196 695l-23 -23h-116l-23 23l23 23h116zM383 359l-23 -23h-116l-23 23l23 23h116zM45 386l-23 -24l-23 24v283l23 23l23 -23v-283zM362 58h-34l-87 235v32h34l87 -235v-32z
M196 359l-23 -23h-116l-23 23l23 23h116zM45 50l-23 -24l-23 24v283l23 23l23 -23v-283z" />
    <glyph glyph-name="s" unicode="s" 
d="M383 695l-23 -23h-116l-23 23l23 23h116zM196 695l-23 -23h-116l-23 23l23 23h116zM383 359l-23 -23h-116l-23 23l23 23h116zM418 50l-23 -24l-23 24v283l23 23l23 -23v-283zM45 386l-23 -24l-23 24v283l23 23l23 -23v-283zM196 359l-23 -23h-116l-23 23l23 23h116z
M383 23l-23 -23h-116l-23 23l23 23h116zM196 23l-23 -23h-116l-23 23l23 23h116z" />
    <glyph glyph-name="t" unicode="t" 
d="M383 695l-23 -23h-116l-23 23l23 23h116zM196 695l-23 -23h-116l-23 23l23 23h116zM232 386l-23 -24l-23 24v283l23 23l23 -23v-283zM232 50l-23 -24l-23 24v283l23 23l23 -23v-283z" />
    <glyph glyph-name="u" unicode="u" 
d="M418 386l-23 -24l-23 24v283l23 23l23 -23v-283zM418 50l-23 -24l-23 24v283l23 23l23 -23v-283zM45 386l-23 -24l-23 24v283l23 23l23 -23v-283zM383 23l-23 -23h-116l-23 23l23 23h116zM45 50l-23 -24l-23 24v283l23 23l23 -23v-283zM196 23l-23 -23h-116l-23 23l23 23
h116z" />
    <glyph glyph-name="v" unicode="v" 
d="M418 386l-23 -24l-23 24v283l23 23l23 -23v-283zM45 386l-23 -24l-23 24v283l23 23l23 -23v-283zM362 293l-87 -235h-34v32l87 235h34v-32zM176 58h-34l-87 235v32h34l87 -235v-32z" />
    <glyph glyph-name="w" unicode="w" 
d="M418 386l-23 -24l-23 24v283l23 23l23 -23v-283zM418 50l-23 -24l-23 24v283l23 23l23 -23v-283zM45 386l-23 -24l-23 24v283l23 23l23 -23v-283zM362 58h-34l-87 235v32h34l87 -235v-32zM176 293l-87 -235h-34v32l87 235h34v-32zM45 50l-23 -24l-23 24v283l23 23l23 -23
v-283z" />
    <glyph glyph-name="x" unicode="x" 
d="M362 629l-87 -235h-34v31l87 236h34v-32zM383 359l-23 -23h-116l-23 23l23 23h116zM176 394h-34l-87 235v32h34l87 -236v-31zM418 50l-23 -24l-23 24v283l23 23l23 -23v-283zM196 359l-23 -23h-116l-23 23l23 23h116zM45 50l-23 -24l-23 24v283l23 23l23 -23v-283z" />
    <glyph glyph-name="y" unicode="y" 
d="M418 386l-23 -24l-23 24v283l23 23l23 -23v-283zM383 359l-23 -23h-116l-23 23l23 23h116zM418 50l-23 -24l-23 24v283l23 23l23 -23v-283zM45 386l-23 -24l-23 24v283l23 23l23 -23v-283zM196 359l-23 -23h-116l-23 23l23 23h116zM383 23l-23 -23h-116l-23 23l23 23h116
zM196 23l-23 -23h-116l-23 23l23 23h116z" />
    <glyph glyph-name="z" unicode="z" 
d="M383 695l-23 -23h-116l-23 23l23 23h116zM362 629l-87 -235h-34v31l87 236h34v-32zM196 695l-23 -23h-116l-23 23l23 23h116zM383 23l-23 -23h-116l-23 23l23 23h116zM176 293l-87 -235h-34v32l87 235h34v-32zM196 23l-23 -23h-116l-23 23l23 23h116z" />
    <glyph glyph-name="braceleft" unicode="{" 
d="M196 695l-23 -23h-116l-23 23l23 23h116zM176 394h-34l-87 235v32h34l87 -236v-31zM176 293l-87 -235h-34v32l87 235h34v-32zM196 23l-23 -23h-116l-23 23l23 23h116z" />
    <glyph glyph-name="bar" unicode="|" 
d="M232 386l-23 -24l-23 24v283l23 23l23 -23v-283zM232 50l-23 -24l-23 24v283l23 23l23 -23v-283z" />
    <glyph glyph-name="braceright" unicode="}" 
d="M383 695l-23 -23h-116l-23 23l23 23h116zM362 629l-87 -235h-34v31l87 236h34v-32zM362 58h-34l-87 235v32h34l87 -235v-32zM383 23l-23 -23h-116l-23 23l23 23h116z" />
    <glyph glyph-name="asciitilde" unicode="~" 
d="M418 386l-23 -24l-23 24v283l23 23l23 -23v-283zM196 695l-23 -23h-116l-23 23l23 23h116zM232 386l-23 -24l-23 24v283l23 23l23 -23v-283zM383 359l-23 -23h-116l-23 23l23 23h116zM45 386l-23 -24l-23 24v283l23 23l23 -23v-283z" />
    <glyph glyph-name="Adieresis" unicode="&#xc4;" 
d="M383 695l-23 -23h-116l-23 23l23 23h116zM418 386l-23 -24l-23 24v283l23 23l23 -23v-283zM196 695l-23 -23h-116l-23 23l23 23h116zM383 359l-23 -23h-116l-23 23l23 23h116zM418 50l-23 -24l-23 24v283l23 23l23 -23v-283zM45 386l-23 -24l-23 24v283l23 23l23 -23
v-283zM196 359l-23 -23h-116l-23 23l23 23h116zM45 50l-23 -24l-23 24v283l23 23l23 -23v-283zM327 842v-43l-23 -23l-23 23v43l23 23zM134 842v-43l-23 -23l-23 23v43l23 23z" />
    <glyph glyph-name="Aring" unicode="&#xc5;" 
d="M383 695l-23 -23h-116l-23 23l23 23h116zM418 386l-23 -24l-23 24v283l23 23l23 -23v-283zM196 695l-23 -23h-116l-23 23l23 23h116zM383 359l-23 -23h-116l-23 23l23 23h116zM418 50l-23 -24l-23 24v283l23 23l23 -23v-283zM45 386l-23 -24l-23 24v283l23 23l23 -23
v-283zM196 359l-23 -23h-116l-23 23l23 23h116zM45 50l-23 -24l-23 24v283l23 23l23 -23v-283zM298 827l-23 -23l-24 23v73l24 23l23 -23v-73zM262 926l-23 -23h-54l-23 23l23 23h54zM173 827l-24 -23l-23 23v73l23 23l24 -23v-73zM262 801l-23 -23h-54l-23 23l23 23h54z
" />
    <glyph glyph-name="Ccedilla" unicode="&#xc7;" 
d="M383 695l-23 -23h-116l-23 23l23 23h116zM196 695l-23 -23h-116l-23 23l23 23h116zM45 386l-23 -24l-23 24v283l23 23l23 -23v-283zM383 23l-23 -23h-116l-23 23l23 23h116zM45 50l-23 -24l-23 24v283l23 23l23 -23v-283zM196 23l-23 -23h-116l-23 23l23 23h116zM232 -81
l-23 -23l-23 23v72l23 23l23 -23v-72zM196 -108l-23 -23h-54l-23 23l23 23h54z" />
    <glyph glyph-name="Eacute" unicode="&#xc9;" 
d="M383 695l-23 -23h-116l-23 23l23 23h116zM196 695l-23 -23h-116l-23 23l23 23h116zM383 359l-23 -23h-116l-23 23l23 23h116zM45 386l-23 -24l-23 24v283l23 23l23 -23v-283zM196 359l-23 -23h-116l-23 23l23 23h116zM383 23l-23 -23h-116l-23 23l23 23h116zM45 50
l-23 -24l-23 24v283l23 23l23 -23v-283zM196 23l-23 -23h-116l-23 23l23 23h116zM319 871l-92 -93h-33v33l92 92h33v-32z" />
    <glyph glyph-name="Ntilde" unicode="&#xd1;" 
d="M418 386l-23 -24l-23 24v283l23 23l23 -23v-283zM176 394h-34l-87 235v32h34l87 -236v-31zM418 50l-23 -24l-23 24v283l23 23l23 -23v-283zM45 386l-23 -24l-23 24v283l23 23l23 -23v-283zM362 58h-34l-87 235v32h34l87 -235v-32zM45 50l-23 -24l-23 24v283l23 23l23 -23
v-283zM418 825l-23 -23l-23 23v130l23 23l23 -23v-130zM383 799l-23 -23h-116l-23 23l23 23h116zM232 825l-23 -23l-23 23v130l23 23l23 -23v-130zM196 981l-23 -23h-116l-23 23l23 23h116zM45 955v-131l-23 -23l-23 23v131l23 23z" />
    <glyph glyph-name="Odieresis" unicode="&#xd6;" 
d="M383 695l-23 -23h-116l-23 23l23 23h116zM418 386l-23 -24l-23 24v283l23 23l23 -23v-283zM196 695l-23 -23h-116l-23 23l23 23h116zM418 50l-23 -24l-23 24v283l23 23l23 -23v-283zM45 386l-23 -24l-23 24v283l23 23l23 -23v-283zM383 23l-23 -23h-116l-23 23l23 23h116
zM45 50l-23 -24l-23 24v283l23 23l23 -23v-283zM196 23l-23 -23h-116l-23 23l23 23h116zM327 842v-43l-23 -23l-23 23v43l23 23zM134 842v-43l-23 -23l-23 23v43l23 23z" />
    <glyph glyph-name="Udieresis" unicode="&#xdc;" 
d="M418 386l-23 -24l-23 24v283l23 23l23 -23v-283zM418 50l-23 -24l-23 24v283l23 23l23 -23v-283zM45 386l-23 -24l-23 24v283l23 23l23 -23v-283zM383 23l-23 -23h-116l-23 23l23 23h116zM45 50l-23 -24l-23 24v283l23 23l23 -23v-283zM196 23l-23 -23h-116l-23 23l23 23
h116zM327 842v-43l-23 -23l-23 23v43l23 23zM134 842v-43l-23 -23l-23 23v43l23 23z" />
    <glyph glyph-name="aacute" unicode="&#xe1;" 
d="M383 695l-23 -23h-116l-23 23l23 23h116zM418 386l-23 -24l-23 24v283l23 23l23 -23v-283zM196 695l-23 -23h-116l-23 23l23 23h116zM383 359l-23 -23h-116l-23 23l23 23h116zM418 50l-23 -24l-23 24v283l23 23l23 -23v-283zM45 386l-23 -24l-23 24v283l23 23l23 -23
v-283zM196 359l-23 -23h-116l-23 23l23 23h116zM45 50l-23 -24l-23 24v283l23 23l23 -23v-283zM319 871l-92 -93h-33v33l92 92h33v-32z" />
    <glyph glyph-name="agrave" unicode="&#xe0;" 
d="M193 778h-33l-92 93v32h32l93 -92v-33zM383 695l-23 -23h-116l-23 23l23 23h116zM418 386l-23 -24l-23 24v283l23 23l23 -23v-283zM196 695l-23 -23h-116l-23 23l23 23h116zM383 359l-23 -23h-116l-23 23l23 23h116zM418 50l-23 -24l-23 24v283l23 23l23 -23v-283z
M45 386l-23 -24l-23 24v283l23 23l23 -23v-283zM196 359l-23 -23h-116l-23 23l23 23h116zM45 50l-23 -24l-23 24v283l23 23l23 -23v-283z" />
    <glyph glyph-name="acircumflex" unicode="&#xe2;" 
d="M383 695l-23 -23h-116l-23 23l23 23h116zM418 386l-23 -24l-23 24v283l23 23l23 -23v-283zM196 695l-23 -23h-116l-23 23l23 23h116zM383 359l-23 -23h-116l-23 23l23 23h116zM418 50l-23 -24l-23 24v283l23 23l23 -23v-283zM45 386l-23 -24l-23 24v283l23 23l23 -23
v-283zM196 359l-23 -23h-116l-23 23l23 23h116zM45 50l-23 -24l-23 24v283l23 23l23 -23v-283zM341 778h-33l-92 93v32h33l92 -92v-33zM201 871l-92 -93h-33v33l92 92h33v-32z" />
    <glyph glyph-name="adieresis" unicode="&#xe4;" 
d="M383 695l-23 -23h-116l-23 23l23 23h116zM418 386l-23 -24l-23 24v283l23 23l23 -23v-283zM196 695l-23 -23h-116l-23 23l23 23h116zM383 359l-23 -23h-116l-23 23l23 23h116zM418 50l-23 -24l-23 24v283l23 23l23 -23v-283zM45 386l-23 -24l-23 24v283l23 23l23 -23
v-283zM196 359l-23 -23h-116l-23 23l23 23h116zM45 50l-23 -24l-23 24v283l23 23l23 -23v-283zM327 842v-43l-23 -23l-23 23v43l23 23zM134 842v-43l-23 -23l-23 23v43l23 23z" />
    <glyph glyph-name="atilde" unicode="&#xe3;" 
d="M383 695l-23 -23h-116l-23 23l23 23h116zM418 386l-23 -24l-23 24v283l23 23l23 -23v-283zM196 695l-23 -23h-116l-23 23l23 23h116zM383 359l-23 -23h-116l-23 23l23 23h116zM418 50l-23 -24l-23 24v283l23 23l23 -23v-283zM45 386l-23 -24l-23 24v283l23 23l23 -23
v-283zM196 359l-23 -23h-116l-23 23l23 23h116zM45 50l-23 -24l-23 24v283l23 23l23 -23v-283zM418 825l-23 -23l-23 23v130l23 23l23 -23v-130zM383 799l-23 -23h-116l-23 23l23 23h116zM232 825l-23 -23l-23 23v130l23 23l23 -23v-130zM196 981l-23 -23h-116l-23 23l23 23
h116zM45 955v-131l-23 -23l-23 23v131l23 23z" />
    <glyph glyph-name="aring" unicode="&#xe5;" 
d="M383 695l-23 -23h-116l-23 23l23 23h116zM418 386l-23 -24l-23 24v283l23 23l23 -23v-283zM196 695l-23 -23h-116l-23 23l23 23h116zM383 359l-23 -23h-116l-23 23l23 23h116zM418 50l-23 -24l-23 24v283l23 23l23 -23v-283zM45 386l-23 -24l-23 24v283l23 23l23 -23
v-283zM196 359l-23 -23h-116l-23 23l23 23h116zM45 50l-23 -24l-23 24v283l23 23l23 -23v-283zM298 827l-23 -23l-24 23v73l24 23l23 -23v-73zM262 926l-23 -23h-54l-23 23l23 23h54zM173 827l-24 -23l-23 23v73l23 23l24 -23v-73zM262 801l-23 -23h-54l-23 23l23 23h54z
" />
    <glyph glyph-name="ccedilla" unicode="&#xe7;" 
d="M383 695l-23 -23h-116l-23 23l23 23h116zM196 695l-23 -23h-116l-23 23l23 23h116zM45 386l-23 -24l-23 24v283l23 23l23 -23v-283zM383 23l-23 -23h-116l-23 23l23 23h116zM45 50l-23 -24l-23 24v283l23 23l23 -23v-283zM196 23l-23 -23h-116l-23 23l23 23h116zM232 -81
l-23 -23l-23 23v72l23 23l23 -23v-72zM196 -108l-23 -23h-54l-23 23l23 23h54z" />
    <glyph glyph-name="eacute" unicode="&#xe9;" 
d="M383 695l-23 -23h-116l-23 23l23 23h116zM196 695l-23 -23h-116l-23 23l23 23h116zM383 359l-23 -23h-116l-23 23l23 23h116zM45 386l-23 -24l-23 24v283l23 23l23 -23v-283zM196 359l-23 -23h-116l-23 23l23 23h116zM383 23l-23 -23h-116l-23 23l23 23h116zM45 50
l-23 -24l-23 24v283l23 23l23 -23v-283zM196 23l-23 -23h-116l-23 23l23 23h116zM319 871l-92 -93h-33v33l92 92h33v-32z" />
    <glyph glyph-name="egrave" unicode="&#xe8;" 
d="M193 778h-33l-92 93v32h32l93 -92v-33zM383 695l-23 -23h-116l-23 23l23 23h116zM196 695l-23 -23h-116l-23 23l23 23h116zM383 359l-23 -23h-116l-23 23l23 23h116zM45 386l-23 -24l-23 24v283l23 23l23 -23v-283zM196 359l-23 -23h-116l-23 23l23 23h116zM383 23
l-23 -23h-116l-23 23l23 23h116zM45 50l-23 -24l-23 24v283l23 23l23 -23v-283zM196 23l-23 -23h-116l-23 23l23 23h116z" />
    <glyph glyph-name="ecircumflex" unicode="&#xea;" 
d="M383 695l-23 -23h-116l-23 23l23 23h116zM196 695l-23 -23h-116l-23 23l23 23h116zM383 359l-23 -23h-116l-23 23l23 23h116zM45 386l-23 -24l-23 24v283l23 23l23 -23v-283zM196 359l-23 -23h-116l-23 23l23 23h116zM383 23l-23 -23h-116l-23 23l23 23h116zM45 50
l-23 -24l-23 24v283l23 23l23 -23v-283zM196 23l-23 -23h-116l-23 23l23 23h116zM341 778h-33l-92 93v32h33l92 -92v-33zM201 871l-92 -93h-33v33l92 92h33v-32z" />
    <glyph glyph-name="edieresis" unicode="&#xeb;" 
d="M383 695l-23 -23h-116l-23 23l23 23h116zM196 695l-23 -23h-116l-23 23l23 23h116zM383 359l-23 -23h-116l-23 23l23 23h116zM45 386l-23 -24l-23 24v283l23 23l23 -23v-283zM196 359l-23 -23h-116l-23 23l23 23h116zM383 23l-23 -23h-116l-23 23l23 23h116zM45 50
l-23 -24l-23 24v283l23 23l23 -23v-283zM196 23l-23 -23h-116l-23 23l23 23h116zM327 842v-43l-23 -23l-23 23v43l23 23zM134 842v-43l-23 -23l-23 23v43l23 23z" />
    <glyph glyph-name="iacute" unicode="&#xed;" 
d="M383 695l-23 -23h-116l-23 23l23 23h116zM196 695l-23 -23h-116l-23 23l23 23h116zM232 386l-23 -24l-23 24v283l23 23l23 -23v-283zM232 50l-23 -24l-23 24v283l23 23l23 -23v-283zM383 23l-23 -23h-116l-23 23l23 23h116zM196 23l-23 -23h-116l-23 23l23 23h116z
M319 871l-92 -93h-33v33l92 92h33v-32z" />
    <glyph glyph-name="igrave" unicode="&#xec;" 
d="M383 695l-23 -23h-116l-23 23l23 23h116zM196 695l-23 -23h-116l-23 23l23 23h116zM232 386l-23 -24l-23 24v283l23 23l23 -23v-283zM232 50l-23 -24l-23 24v283l23 23l23 -23v-283zM383 23l-23 -23h-116l-23 23l23 23h116zM196 23l-23 -23h-116l-23 23l23 23h116z
M193 778h-33l-92 93v32h32l93 -92v-33z" />
    <glyph glyph-name="icircumflex" unicode="&#xee;" 
d="M383 695l-23 -23h-116l-23 23l23 23h116zM196 695l-23 -23h-116l-23 23l23 23h116zM232 386l-23 -24l-23 24v283l23 23l23 -23v-283zM232 50l-23 -24l-23 24v283l23 23l23 -23v-283zM383 23l-23 -23h-116l-23 23l23 23h116zM196 23l-23 -23h-116l-23 23l23 23h116z
M341 778h-33l-92 93v32h33l92 -92v-33zM201 871l-92 -93h-33v33l92 92h33v-32z" />
    <glyph glyph-name="idieresis" unicode="&#xef;" 
d="M383 695l-23 -23h-116l-23 23l23 23h116zM196 695l-23 -23h-116l-23 23l23 23h116zM232 386l-23 -24l-23 24v283l23 23l23 -23v-283zM232 50l-23 -24l-23 24v283l23 23l23 -23v-283zM383 23l-23 -23h-116l-23 23l23 23h116zM196 23l-23 -23h-116l-23 23l23 23h116z
M327 842v-43l-23 -23l-23 23v43l23 23zM134 842v-43l-23 -23l-23 23v43l23 23z" />
    <glyph glyph-name="ntilde" unicode="&#xf1;" 
d="M418 386l-23 -24l-23 24v283l23 23l23 -23v-283zM176 394h-34l-87 235v32h34l87 -236v-31zM418 50l-23 -24l-23 24v283l23 23l23 -23v-283zM45 386l-23 -24l-23 24v283l23 23l23 -23v-283zM362 58h-34l-87 235v32h34l87 -235v-32zM45 50l-23 -24l-23 24v283l23 23l23 -23
v-283zM418 825l-23 -23l-23 23v130l23 23l23 -23v-130zM383 799l-23 -23h-116l-23 23l23 23h116zM232 825l-23 -23l-23 23v130l23 23l23 -23v-130zM196 981l-23 -23h-116l-23 23l23 23h116zM45 955v-131l-23 -23l-23 23v131l23 23z" />
    <glyph glyph-name="oacute" unicode="&#xf3;" 
d="M383 695l-23 -23h-116l-23 23l23 23h116zM418 386l-23 -24l-23 24v283l23 23l23 -23v-283zM196 695l-23 -23h-116l-23 23l23 23h116zM418 50l-23 -24l-23 24v283l23 23l23 -23v-283zM45 386l-23 -24l-23 24v283l23 23l23 -23v-283zM383 23l-23 -23h-116l-23 23l23 23h116
zM45 50l-23 -24l-23 24v283l23 23l23 -23v-283zM196 23l-23 -23h-116l-23 23l23 23h116zM319 871l-92 -93h-33v33l92 92h33v-32z" />
    <glyph glyph-name="ograve" unicode="&#xf2;" 
d="M193 778h-33l-92 93v32h32l93 -92v-33zM383 695l-23 -23h-116l-23 23l23 23h116zM418 386l-23 -24l-23 24v283l23 23l23 -23v-283zM196 695l-23 -23h-116l-23 23l23 23h116zM418 50l-23 -24l-23 24v283l23 23l23 -23v-283zM45 386l-23 -24l-23 24v283l23 23l23 -23v-283z
M383 23l-23 -23h-116l-23 23l23 23h116zM45 50l-23 -24l-23 24v283l23 23l23 -23v-283zM196 23l-23 -23h-116l-23 23l23 23h116z" />
    <glyph glyph-name="ocircumflex" unicode="&#xf4;" 
d="M383 695l-23 -23h-116l-23 23l23 23h116zM418 386l-23 -24l-23 24v283l23 23l23 -23v-283zM196 695l-23 -23h-116l-23 23l23 23h116zM418 50l-23 -24l-23 24v283l23 23l23 -23v-283zM45 386l-23 -24l-23 24v283l23 23l23 -23v-283zM383 23l-23 -23h-116l-23 23l23 23h116
zM45 50l-23 -24l-23 24v283l23 23l23 -23v-283zM196 23l-23 -23h-116l-23 23l23 23h116zM341 778h-33l-92 93v32h33l92 -92v-33zM201 871l-92 -93h-33v33l92 92h33v-32z" />
    <glyph glyph-name="odieresis" unicode="&#xf6;" 
d="M383 695l-23 -23h-116l-23 23l23 23h116zM418 386l-23 -24l-23 24v283l23 23l23 -23v-283zM196 695l-23 -23h-116l-23 23l23 23h116zM418 50l-23 -24l-23 24v283l23 23l23 -23v-283zM45 386l-23 -24l-23 24v283l23 23l23 -23v-283zM383 23l-23 -23h-116l-23 23l23 23h116
zM45 50l-23 -24l-23 24v283l23 23l23 -23v-283zM196 23l-23 -23h-116l-23 23l23 23h116zM327 842v-43l-23 -23l-23 23v43l23 23zM134 842v-43l-23 -23l-23 23v43l23 23z" />
    <glyph glyph-name="otilde" unicode="&#xf5;" 
d="M383 695l-23 -23h-116l-23 23l23 23h116zM418 386l-23 -24l-23 24v283l23 23l23 -23v-283zM196 695l-23 -23h-116l-23 23l23 23h116zM418 50l-23 -24l-23 24v283l23 23l23 -23v-283zM45 386l-23 -24l-23 24v283l23 23l23 -23v-283zM383 23l-23 -23h-116l-23 23l23 23h116
zM45 50l-23 -24l-23 24v283l23 23l23 -23v-283zM196 23l-23 -23h-116l-23 23l23 23h116zM418 825l-23 -23l-23 23v130l23 23l23 -23v-130zM383 799l-23 -23h-116l-23 23l23 23h116zM232 825l-23 -23l-23 23v130l23 23l23 -23v-130zM196 981l-23 -23h-116l-23 23l23 23h116z
M45 955v-131l-23 -23l-23 23v131l23 23z" />
    <glyph glyph-name="uacute" unicode="&#xfa;" 
d="M418 386l-23 -24l-23 24v283l23 23l23 -23v-283zM418 50l-23 -24l-23 24v283l23 23l23 -23v-283zM45 386l-23 -24l-23 24v283l23 23l23 -23v-283zM383 23l-23 -23h-116l-23 23l23 23h116zM45 50l-23 -24l-23 24v283l23 23l23 -23v-283zM196 23l-23 -23h-116l-23 23l23 23
h116zM319 871l-92 -93h-33v33l92 92h33v-32z" />
    <glyph glyph-name="ugrave" unicode="&#xf9;" 
d="M193 778h-33l-92 93v32h32l93 -92v-33zM418 386l-23 -24l-23 24v283l23 23l23 -23v-283zM418 50l-23 -24l-23 24v283l23 23l23 -23v-283zM45 386l-23 -24l-23 24v283l23 23l23 -23v-283zM383 23l-23 -23h-116l-23 23l23 23h116zM45 50l-23 -24l-23 24v283l23 23l23 -23
v-283zM196 23l-23 -23h-116l-23 23l23 23h116z" />
    <glyph glyph-name="ucircumflex" unicode="&#xfb;" 
d="M418 386l-23 -24l-23 24v283l23 23l23 -23v-283zM418 50l-23 -24l-23 24v283l23 23l23 -23v-283zM45 386l-23 -24l-23 24v283l23 23l23 -23v-283zM383 23l-23 -23h-116l-23 23l23 23h116zM45 50l-23 -24l-23 24v283l23 23l23 -23v-283zM196 23l-23 -23h-116l-23 23l23 23
h116zM341 778h-33l-92 93v32h33l92 -92v-33zM201 871l-92 -93h-33v33l92 92h33v-32z" />
    <glyph glyph-name="udieresis" unicode="&#xfc;" 
d="M418 386l-23 -24l-23 24v283l23 23l23 -23v-283zM418 50l-23 -24l-23 24v283l23 23l23 -23v-283zM45 386l-23 -24l-23 24v283l23 23l23 -23v-283zM383 23l-23 -23h-116l-23 23l23 23h116zM45 50l-23 -24l-23 24v283l23 23l23 -23v-283zM196 23l-23 -23h-116l-23 23l23 23
h116zM327 842v-43l-23 -23l-23 23v43l23 23zM134 842v-43l-23 -23l-23 23v43l23 23z" />
    <glyph glyph-name="dagger" unicode="&#x2020;" 
d="M232 386l-23 -24l-23 24v283l23 23l23 -23v-283zM383 359l-23 -23h-116l-23 23l23 23h116zM196 359l-23 -23h-116l-23 23l23 23h116zM232 50l-23 -24l-23 24v283l23 23l23 -23v-283z" />
    <glyph glyph-name="degree" unicode="&#xb0;" 
d="M196 695l-23 -23h-116l-23 23l23 23h116zM232 386l-23 -24l-23 24v283l23 23l23 -23v-283zM45 386l-23 -24l-23 24v283l23 23l23 -23v-283zM196 359l-23 -23h-116l-23 23l23 23h116z" />
    <glyph glyph-name="cent" unicode="&#xa2;" 
d="M383 359l-23 -23h-116l-23 23l23 23h116zM196 359l-23 -23h-116l-23 23l23 23h116zM232 50l-23 -24l-23 24v283l23 23l23 -23v-283zM383 23l-23 -23h-116l-23 23l23 23h116zM45 50l-23 -24l-23 24v283l23 23l23 -23v-283zM196 23l-23 -23h-116l-23 23l23 23h116z" />
    <glyph glyph-name="sterling" unicode="&#xa3;" 
d="M196 695l-23 -23h-116l-23 23l23 23h116zM418 50l-23 -24l-23 24v283l23 23l23 -23v-283zM45 386l-23 -24l-23 24v283l23 23l23 -23v-283zM196 359l-23 -23h-116l-23 23l23 23h116zM383 23l-23 -23h-116l-23 23l23 23h116zM45 50l-23 -24l-23 24v283l23 23l23 -23v-283z
M196 23l-23 -23h-116l-23 23l23 23h116z" />
    <glyph glyph-name="section" unicode="&#xa7;" 
d="M383 695l-23 -23h-116l-23 23l23 23h116zM196 695l-23 -23h-116l-23 23l23 23h116zM383 359l-23 -23h-116l-23 23l23 23h116zM176 394h-34l-87 235v32h34l87 -236v-31zM418 50l-23 -24l-23 24v283l23 23l23 -23v-283zM45 386l-23 -24l-23 24v283l23 23l23 -23v-283z
M362 58h-34l-87 235v32h34l87 -235v-32zM196 359l-23 -23h-116l-23 23l23 23h116zM383 23l-23 -23h-116l-23 23l23 23h116zM196 23l-23 -23h-116l-23 23l23 23h116z" />
    <glyph glyph-name="bullet" unicode="&#x2022;" horiz-adv-x="199" 
d="M144 340l-23 -23l-23 23v42l23 23l23 -23v-42zM108 408l-23 -24h-28l-23 24l23 23h28zM108 313l-23 -23h-28l-23 23l23 23h28zM45 340l-23 -23l-23 23v42l23 23l23 -23v-42z" />
    <glyph glyph-name="paragraph" unicode="&#xb6;" 
d="M383 695l-23 -23h-116l-23 23l23 23h116zM418 386l-23 -24l-23 24v283l23 23l23 -23v-283zM196 695l-23 -23h-116l-23 23l23 23h116zM232 386l-23 -24l-23 24v283l23 23l23 -23v-283zM418 50l-23 -24l-23 24v283l23 23l23 -23v-283zM45 386l-23 -24l-23 24v283l23 23
l23 -23v-283zM196 359l-23 -23h-116l-23 23l23 23h116zM232 50l-23 -24l-23 24v283l23 23l23 -23v-283z" />
    <glyph glyph-name="germandbls" unicode="&#xdf;" 
d="M196 695l-23 -23h-116l-23 23l23 23h116zM232 386l-23 -24l-23 24v283l23 23l23 -23v-283zM383 359l-23 -23h-116l-23 23l23 23h116zM418 50l-23 -24l-23 24v283l23 23l23 -23v-283zM45 386l-23 -24l-23 24v283l23 23l23 -23v-283zM196 359l-23 -23h-116l-23 23l23 23
h116zM383 23l-23 -23h-116l-23 23l23 23h116zM45 50l-23 -24l-23 24v283l23 23l23 -23v-283z" />
    <glyph glyph-name="registered" unicode="&#xae;" 
d="M383 695l-23 -23h-116l-23 23l23 23h116zM418 386l-23 -24l-23 24v283l23 23l23 -23v-283zM196 695l-23 -23h-116l-23 23l23 23h116zM418 50l-23 -24l-23 24v283l23 23l23 -23v-283zM196 359l-23 -23h-116l-23 23l23 23h116zM45 50l-23 -24l-23 24v283l23 23l23 -23v-283
z" />
    <glyph glyph-name="copyright" unicode="&#xa9;" 
d="M383 695l-23 -23h-116l-23 23l23 23h116zM418 386l-23 -24l-23 24v283l23 23l23 -23v-283zM196 695l-23 -23h-116l-23 23l23 23h116zM418 50l-23 -24l-23 24v283l23 23l23 -23v-283zM196 359l-23 -23h-116l-23 23l23 23h116zM45 50l-23 -24l-23 24v283l23 23l23 -23v-283
zM196 23l-23 -23h-116l-23 23l23 23h116z" />
    <glyph glyph-name="trademark" unicode="&#x2122;" 
d="M383 695l-23 -23h-116l-23 23l23 23h116zM196 695l-23 -23h-116l-23 23l23 23h116zM232 386l-23 -24l-23 24v283l23 23l23 -23v-283zM383 359l-23 -23h-116l-23 23l23 23h116zM418 50l-23 -24l-23 24v283l23 23l23 -23v-283zM196 359l-23 -23h-116l-23 23l23 23h116z
M232 50l-23 -24l-23 24v283l23 23l23 -23v-283zM45 50l-23 -24l-23 24v283l23 23l23 -23v-283z" />
    <glyph glyph-name="acute" unicode="&#xb4;" horiz-adv-x="360" 
d="M319 871l-92 -93h-33v33l92 92h33v-32z" />
    <glyph glyph-name="dieresis" unicode="&#xa8;" horiz-adv-x="374" 
d="M327 842v-43l-23 -23l-23 23v43l23 23zM134 842v-43l-23 -23l-23 23v43l23 23z" />
    <glyph glyph-name="AE" unicode="&#xc6;" 
d="M383 695l-23 -23h-116l-23 23l23 23h116zM196 695l-23 -23h-116l-23 23l23 23h116zM232 386l-23 -24l-23 24v283l23 23l23 -23v-283zM383 359l-23 -23h-116l-23 23l23 23h116zM45 386l-23 -24l-23 24v283l23 23l23 -23v-283zM196 359l-23 -23h-116l-23 23l23 23h116z
M232 50l-23 -24l-23 24v283l23 23l23 -23v-283zM383 23l-23 -23h-116l-23 23l23 23h116zM45 50l-23 -24l-23 24v283l23 23l23 -23v-283z" />
    <glyph glyph-name="Oslash" unicode="&#xd8;" 
d="M383 695l-23 -23h-116l-23 23l23 23h116zM418 386l-23 -24l-23 24v283l23 23l23 -23v-283zM362 629l-87 -235h-34v31l87 236h34v-32zM196 695l-23 -23h-116l-23 23l23 23h116zM418 50l-23 -24l-23 24v283l23 23l23 -23v-283zM45 386l-23 -24l-23 24v283l23 23l23 -23
v-283zM383 23l-23 -23h-116l-23 23l23 23h116zM176 293l-87 -235h-34v32l87 235h34v-32zM45 50l-23 -24l-23 24v283l23 23l23 -23v-283zM196 23l-23 -23h-116l-23 23l23 23h116z" />
    <glyph glyph-name="plusminus" unicode="&#xb1;" 
d="M232 386l-23 -24l-23 24v283l23 23l23 -23v-283zM383 359l-23 -23h-116l-23 23l23 23h116zM196 359l-23 -23h-116l-23 23l23 23h116zM232 50l-23 -24l-23 24v283l23 23l23 -23v-283zM383 23l-23 -23h-116l-23 23l23 23h116zM196 23l-23 -23h-116l-23 23l23 23h116z" />
    <glyph glyph-name="yen" unicode="&#xa5;" 
d="M362 629l-87 -235h-34v31l87 236h34v-32zM383 359l-23 -23h-116l-23 23l23 23h116zM176 394h-34l-87 235v32h34l87 -236v-31zM196 359l-23 -23h-116l-23 23l23 23h116zM232 50l-23 -24l-23 24v283l23 23l23 -23v-283z" />
    <glyph glyph-name="mu" unicode="&#xb5;" 
d="M418 386l-23 -24l-23 24v283l23 23l23 -23v-283zM418 50l-23 -24l-23 24v283l23 23l23 -23v-283zM45 386l-23 -24l-23 24v283l23 23l23 -23v-283zM383 23l-23 -23h-116l-23 23l23 23h116zM45 50l-23 -24l-23 24v283l23 23l23 -23v-283zM196 23l-23 -23h-116l-23 23l23 23
h116zM45 -118l-23 -23l-23 23v115l23 23l23 -23v-115z" />
    <glyph glyph-name="mu" unicode="&#x3bc;" 
d="M418 386l-23 -24l-23 24v283l23 23l23 -23v-283zM418 50l-23 -24l-23 24v283l23 23l23 -23v-283zM45 386l-23 -24l-23 24v283l23 23l23 -23v-283zM383 23l-23 -23h-116l-23 23l23 23h116zM45 50l-23 -24l-23 24v283l23 23l23 -23v-283zM196 23l-23 -23h-116l-23 23l23 23
h116zM45 -118l-23 -23l-23 23v115l23 23l23 -23v-115z" />
    <glyph glyph-name="ordfeminine" unicode="&#xaa;" 
d="M383 695l-23 -23h-116l-23 23l23 23h116zM418 386l-23 -24l-23 24v283l23 23l23 -23v-283zM362 629l-87 -235h-34v31l87 236h34v-32zM196 695l-23 -23h-116l-23 23l23 23h116zM45 386l-23 -24l-23 24v283l23 23l23 -23v-283zM196 359l-23 -23h-116l-23 23l23 23h116z
M383 23l-23 -23h-116l-23 23l23 23h116zM196 23l-23 -23h-116l-23 23l23 23h116z" />
    <glyph glyph-name="ordmasculine" unicode="&#xba;" 
d="M383 695l-23 -23h-116l-23 23l23 23h116zM418 386l-23 -24l-23 24v283l23 23l23 -23v-283zM196 695l-23 -23h-116l-23 23l23 23h116zM383 359l-23 -23h-116l-23 23l23 23h116zM45 386l-23 -24l-23 24v283l23 23l23 -23v-283zM196 359l-23 -23h-116l-23 23l23 23h116z
M383 23l-23 -23h-116l-23 23l23 23h116zM196 23l-23 -23h-116l-23 23l23 23h116z" />
    <glyph glyph-name="ae" unicode="&#xe6;" 
d="M383 695l-23 -23h-116l-23 23l23 23h116zM196 695l-23 -23h-116l-23 23l23 23h116zM232 386l-23 -24l-23 24v283l23 23l23 -23v-283zM383 359l-23 -23h-116l-23 23l23 23h116zM45 386l-23 -24l-23 24v283l23 23l23 -23v-283zM196 359l-23 -23h-116l-23 23l23 23h116z
M232 50l-23 -24l-23 24v283l23 23l23 -23v-283zM383 23l-23 -23h-116l-23 23l23 23h116zM45 50l-23 -24l-23 24v283l23 23l23 -23v-283z" />
    <glyph glyph-name="oslash" unicode="&#xf8;" 
d="M383 695l-23 -23h-116l-23 23l23 23h116zM418 386l-23 -24l-23 24v283l23 23l23 -23v-283zM362 629l-87 -235h-34v31l87 236h34v-32zM196 695l-23 -23h-116l-23 23l23 23h116zM418 50l-23 -24l-23 24v283l23 23l23 -23v-283zM45 386l-23 -24l-23 24v283l23 23l23 -23
v-283zM383 23l-23 -23h-116l-23 23l23 23h116zM176 293l-87 -235h-34v32l87 235h34v-32zM45 50l-23 -24l-23 24v283l23 23l23 -23v-283zM196 23l-23 -23h-116l-23 23l23 23h116z" />
    <glyph glyph-name="questiondown" unicode="&#xbf;" 
d="M232 669v-42l-23 -23l-24 23l1 42l23 23zM196 359l-23 -23h-116l-23 23l23 23h116zM383 23l-23 -23h-116l-23 23l23 23h116zM45 50l-23 -24l-23 24v283l23 23l23 -23v-283zM196 23l-23 -23h-116l-23 23l23 23h116z" />
    <glyph glyph-name="exclamdown" unicode="&#xa1;" 
d="M232 669v-42l-23 -23l-24 23l1 42l23 23zM232 50l-23 -24l-23 24v283l23 23l23 -23v-283z" />
    <glyph glyph-name="logicalnot" unicode="&#xac;" 
d="M383 359l-23 -23h-116l-23 23l23 23h116zM418 50l-23 -24l-23 24v283l23 23l23 -23v-283zM196 359l-23 -23h-116l-23 23l23 23h116z" />
    <glyph glyph-name="florin" unicode="&#x192;" 
d="M383 695l-23 -23h-116l-23 23l23 23h116zM232 386l-23 -24l-23 24v283l23 23l23 -23v-283zM383 359l-23 -23h-116l-23 23l23 23h116zM196 359l-23 -23h-116l-23 23l23 23h116zM232 50l-23 -24l-23 24v283l23 23l23 -23v-283zM196 23l-23 -23h-116l-23 23l23 23h116z" />
    <glyph glyph-name="guillemotleft" unicode="&#xab;" 
d="M362 629l-87 -235h-34v31l87 236h34v-32zM383 359l-23 -23h-116l-23 23l23 23h116zM176 293l-87 -235h-34v32l87 235h34v-32zM196 23l-23 -23h-116l-23 23l23 23h116z" />
    <glyph glyph-name="guillemotright" unicode="&#xbb;" 
d="M176 394h-34l-87 235v32h34l87 -236v-31zM362 58h-34l-87 235v32h34l87 -235v-32zM196 359l-23 -23h-116l-23 23l23 23h116zM383 23l-23 -23h-116l-23 23l23 23h116z" />
    <glyph glyph-name="ellipsis" unicode="&#x2026;" 
d="M418 92v-42l-23 -24l-23 24v42l23 23zM232 92v-42l-23 -24l-23 24v42l23 23zM45 92v-42l-23 -24l-23 24v42l23 23z" />
    <glyph glyph-name="Agrave" unicode="&#xc0;" 
d="M383 695l-23 -23h-116l-23 23l23 23h116zM418 386l-23 -24l-23 24v283l23 23l23 -23v-283zM196 695l-23 -23h-116l-23 23l23 23h116zM383 359l-23 -23h-116l-23 23l23 23h116zM418 50l-23 -24l-23 24v283l23 23l23 -23v-283zM45 386l-23 -24l-23 24v283l23 23l23 -23
v-283zM196 359l-23 -23h-116l-23 23l23 23h116zM45 50l-23 -24l-23 24v283l23 23l23 -23v-283zM193 778h-33l-92 93v32h32l93 -92v-33z" />
    <glyph glyph-name="Atilde" unicode="&#xc3;" 
d="M383 695l-23 -23h-116l-23 23l23 23h116zM418 386l-23 -24l-23 24v283l23 23l23 -23v-283zM196 695l-23 -23h-116l-23 23l23 23h116zM383 359l-23 -23h-116l-23 23l23 23h116zM418 50l-23 -24l-23 24v283l23 23l23 -23v-283zM45 386l-23 -24l-23 24v283l23 23l23 -23
v-283zM196 359l-23 -23h-116l-23 23l23 23h116zM45 50l-23 -24l-23 24v283l23 23l23 -23v-283zM418 825l-23 -23l-23 23v130l23 23l23 -23v-130zM383 799l-23 -23h-116l-23 23l23 23h116zM232 825l-23 -23l-23 23v130l23 23l23 -23v-130zM196 981l-23 -23h-116l-23 23l23 23
h116zM45 955v-131l-23 -23l-23 23v131l23 23z" />
    <glyph glyph-name="Otilde" unicode="&#xd5;" 
d="M383 695l-23 -23h-116l-23 23l23 23h116zM418 386l-23 -24l-23 24v283l23 23l23 -23v-283zM196 695l-23 -23h-116l-23 23l23 23h116zM418 50l-23 -24l-23 24v283l23 23l23 -23v-283zM45 386l-23 -24l-23 24v283l23 23l23 -23v-283zM383 23l-23 -23h-116l-23 23l23 23h116
zM45 50l-23 -24l-23 24v283l23 23l23 -23v-283zM196 23l-23 -23h-116l-23 23l23 23h116zM418 825l-23 -23l-23 23v130l23 23l23 -23v-130zM383 799l-23 -23h-116l-23 23l23 23h116zM232 825l-23 -23l-23 23v130l23 23l23 -23v-130zM196 981l-23 -23h-116l-23 23l23 23h116z
M45 955v-131l-23 -23l-23 23v131l23 23z" />
    <glyph glyph-name="OE" unicode="&#x152;" 
d="M383 695l-23 -23h-116l-23 23l23 23h116zM196 695l-23 -23h-116l-23 23l23 23h116zM232 386l-23 -24l-23 24v283l23 23l23 -23v-283zM383 359l-23 -23h-116l-23 23l23 23h116zM45 386l-23 -24l-23 24v283l23 23l23 -23v-283zM232 50l-23 -24l-23 24v283l23 23l23 -23
v-283zM383 23l-23 -23h-116l-23 23l23 23h116zM45 50l-23 -24l-23 24v283l23 23l23 -23v-283zM196 23l-23 -23h-116l-23 23l23 23h116z" />
    <glyph glyph-name="oe" unicode="&#x153;" 
d="M383 695l-23 -23h-116l-23 23l23 23h116zM196 695l-23 -23h-116l-23 23l23 23h116zM232 386l-23 -24l-23 24v283l23 23l23 -23v-283zM383 359l-23 -23h-116l-23 23l23 23h116zM45 386l-23 -24l-23 24v283l23 23l23 -23v-283zM232 50l-23 -24l-23 24v283l23 23l23 -23
v-283zM383 23l-23 -23h-116l-23 23l23 23h116zM45 50l-23 -24l-23 24v283l23 23l23 -23v-283zM196 23l-23 -23h-116l-23 23l23 23h116z" />
    <glyph glyph-name="endash" unicode="&#x2013;" 
d="M196 359l-23 -23h-116l-23 23l23 23h116z" />
    <glyph glyph-name="emdash" unicode="&#x2014;" 
d="M383 359l-23 -23h-116l-23 23l23 23h116zM196 359l-23 -23h-116l-23 23l23 23h116z" />
    <glyph glyph-name="quotedblleft" unicode="&#x201c;" horiz-adv-x="280" 
d="M232 669v-131l-24 -23l-23 23l1 131l23 23zM45 669v-131l-23 -23l-23 23v131l23 23z" />
    <glyph glyph-name="quotedblright" unicode="&#x201d;" horiz-adv-x="280" 
d="M232 669v-131l-24 -23l-23 23l1 131l23 23zM45 669v-131l-23 -23l-23 23v131l23 23z" />
    <glyph glyph-name="quoteleft" unicode="&#x2018;" horiz-adv-x="90" 
d="M47 669v-131l-23 -23l-23 23v131l23 23z" />
    <glyph glyph-name="quoteright" unicode="&#x2019;" horiz-adv-x="90" 
d="M47 669v-131l-23 -23l-23 23v131l23 23z" />
    <glyph glyph-name="divide" unicode="&#xf7;" 
d="M232 669v-42l-23 -23l-24 23l1 42l23 23zM383 359l-23 -23h-116l-23 23l23 23h116zM196 359l-23 -23h-116l-23 23l23 23h116zM232 92v-42l-23 -24l-23 24v42l23 23z" />
    <glyph glyph-name="ydieresis" unicode="&#xff;" 
d="M418 386l-23 -24l-23 24v283l23 23l23 -23v-283zM383 359l-23 -23h-116l-23 23l23 23h116zM418 50l-23 -24l-23 24v283l23 23l23 -23v-283zM45 386l-23 -24l-23 24v283l23 23l23 -23v-283zM196 359l-23 -23h-116l-23 23l23 23h116zM383 23l-23 -23h-116l-23 23l23 23h116
zM196 23l-23 -23h-116l-23 23l23 23h116zM327 842v-43l-23 -23l-23 23v43l23 23zM134 842v-43l-23 -23l-23 23v43l23 23z" />
    <glyph glyph-name="Ydieresis" unicode="&#x178;" 
d="M418 386l-23 -24l-23 24v283l23 23l23 -23v-283zM383 359l-23 -23h-116l-23 23l23 23h116zM45 386l-23 -24l-23 24v283l23 23l23 -23v-283zM196 359l-23 -23h-116l-23 23l23 23h116zM232 50l-23 -24l-23 24v283l23 23l23 -23v-283zM327 842v-43l-23 -23l-23 23v43l23 23z
M134 842v-43l-23 -23l-23 23v43l23 23z" />
    <glyph glyph-name="currency" unicode="&#xa4;" 
d="M383 695l-23 -23h-116l-23 23l23 23h116zM232 473l-23 -23l-23 23v196l23 23l23 -23v-196zM232 298l-23 -23l-23 23v121l23 23l23 -23v-121zM196 447l-23 -23h-116l-23 23l23 23h116zM196 271l-23 -23h-116l-23 23l23 23h116zM232 50l-23 -24l-23 24v195l23 23l23 -23
v-195zM383 23l-23 -23h-116l-23 23l23 23h116z" />
    <glyph glyph-name="guilsinglleft" unicode="&#x2039;" horiz-adv-x="246" 
d="M176 293l-87 -235h-34v32l87 235h34v-32zM196 23l-23 -23h-116l-23 23l23 23h116z" />
    <glyph glyph-name="guilsinglright" unicode="&#x203a;" horiz-adv-x="204" 
d="M143 58h-34l-87 235v32h34l87 -235v-32zM163 23l-23 -23h-116l-23 23l23 23h116z" />
    <glyph glyph-name="daggerdbl" unicode="&#x2021;" 
d="M383 695l-23 -23h-116l-23 23l23 23h116zM196 695l-23 -23h-116l-23 23l23 23h116zM232 386l-23 -24l-23 24v283l23 23l23 -23v-283zM383 359l-23 -23h-116l-23 23l23 23h116zM196 359l-23 -23h-116l-23 23l23 23h116zM232 50l-23 -24l-23 24v283l23 23l23 -23v-283z" />
    <glyph glyph-name="periodcentered" unicode="&#xb7;" horiz-adv-x="101" 
d="M45 382v-42l-23 -23l-23 23v42l23 23z" />
    <glyph glyph-name="periodcentered" unicode="&#x2219;" horiz-adv-x="101" 
d="M45 382v-42l-23 -23l-23 23v42l23 23z" />
    <glyph glyph-name="quotesinglbase" unicode="&#x201a;" horiz-adv-x="93" 
d="M45 180v-130l-23 -24l-23 24v130l23 24z" />
    <glyph glyph-name="quotedblbase" unicode="&#x201e;" 
d="M232 180v-130l-23 -24l-23 24v130l23 24zM45 180v-130l-23 -24l-23 24v130l23 24z" />
    <glyph glyph-name="perthousand" unicode="&#x2030;" 
d="M362 629l-87 -235h-34v31l87 236h34v-32zM196 695l-23 -23h-116l-23 23l23 23h116zM232 386l-23 -24l-23 24v283l23 23l23 -23v-283zM383 359l-23 -23h-116l-23 23l23 23h116zM418 50l-23 -24l-23 24v283l23 23l23 -23v-283zM45 386l-23 -24l-23 24v283l23 23l23 -23
v-283zM362 58h-34l-87 235v32h34l87 -235v-32zM196 359l-23 -23h-116l-23 23l23 23h116zM232 50l-23 -24l-23 24v283l23 23l23 -23v-283zM383 23l-23 -23h-116l-23 23l23 23h116zM176 293l-87 -235h-34v32l87 235h34v-32z" />
    <glyph glyph-name="Acircumflex" unicode="&#xc2;" 
d="M383 695l-23 -23h-116l-23 23l23 23h116zM418 386l-23 -24l-23 24v283l23 23l23 -23v-283zM196 695l-23 -23h-116l-23 23l23 23h116zM383 359l-23 -23h-116l-23 23l23 23h116zM418 50l-23 -24l-23 24v283l23 23l23 -23v-283zM45 386l-23 -24l-23 24v283l23 23l23 -23
v-283zM196 359l-23 -23h-116l-23 23l23 23h116zM45 50l-23 -24l-23 24v283l23 23l23 -23v-283zM341 778h-33l-92 93v32h33l92 -92v-33zM201 871l-92 -93h-33v33l92 92h33v-32z" />
    <glyph glyph-name="Ecircumflex" unicode="&#xca;" 
d="M383 695l-23 -23h-116l-23 23l23 23h116zM196 695l-23 -23h-116l-23 23l23 23h116zM383 359l-23 -23h-116l-23 23l23 23h116zM45 386l-23 -24l-23 24v283l23 23l23 -23v-283zM196 359l-23 -23h-116l-23 23l23 23h116zM383 23l-23 -23h-116l-23 23l23 23h116zM45 50
l-23 -24l-23 24v283l23 23l23 -23v-283zM196 23l-23 -23h-116l-23 23l23 23h116zM341 778h-33l-92 93v32h33l92 -92v-33zM201 871l-92 -93h-33v33l92 92h33v-32z" />
    <glyph glyph-name="Aacute" unicode="&#xc1;" 
d="M383 695l-23 -23h-116l-23 23l23 23h116zM418 386l-23 -24l-23 24v283l23 23l23 -23v-283zM196 695l-23 -23h-116l-23 23l23 23h116zM383 359l-23 -23h-116l-23 23l23 23h116zM418 50l-23 -24l-23 24v283l23 23l23 -23v-283zM45 386l-23 -24l-23 24v283l23 23l23 -23
v-283zM196 359l-23 -23h-116l-23 23l23 23h116zM45 50l-23 -24l-23 24v283l23 23l23 -23v-283zM319 871l-92 -93h-33v33l92 92h33v-32z" />
    <glyph glyph-name="Edieresis" unicode="&#xcb;" 
d="M383 695l-23 -23h-116l-23 23l23 23h116zM196 695l-23 -23h-116l-23 23l23 23h116zM383 359l-23 -23h-116l-23 23l23 23h116zM45 386l-23 -24l-23 24v283l23 23l23 -23v-283zM196 359l-23 -23h-116l-23 23l23 23h116zM383 23l-23 -23h-116l-23 23l23 23h116zM45 50
l-23 -24l-23 24v283l23 23l23 -23v-283zM196 23l-23 -23h-116l-23 23l23 23h116zM327 842v-43l-23 -23l-23 23v43l23 23zM134 842v-43l-23 -23l-23 23v43l23 23z" />
    <glyph glyph-name="Egrave" unicode="&#xc8;" 
d="M383 695l-23 -23h-116l-23 23l23 23h116zM196 695l-23 -23h-116l-23 23l23 23h116zM383 359l-23 -23h-116l-23 23l23 23h116zM45 386l-23 -24l-23 24v283l23 23l23 -23v-283zM196 359l-23 -23h-116l-23 23l23 23h116zM383 23l-23 -23h-116l-23 23l23 23h116zM45 50
l-23 -24l-23 24v283l23 23l23 -23v-283zM196 23l-23 -23h-116l-23 23l23 23h116zM193 778h-33l-92 93v32h32l93 -92v-33z" />
    <glyph glyph-name="Iacute" unicode="&#xcd;" 
d="M383 695l-23 -23h-116l-23 23l23 23h116zM196 695l-23 -23h-116l-23 23l23 23h116zM232 386l-23 -24l-23 24v283l23 23l23 -23v-283zM232 50l-23 -24l-23 24v283l23 23l23 -23v-283zM383 23l-23 -23h-116l-23 23l23 23h116zM196 23l-23 -23h-116l-23 23l23 23h116z
M319 871l-92 -93h-33v33l92 92h33v-32z" />
    <glyph glyph-name="Icircumflex" unicode="&#xce;" 
d="M383 695l-23 -23h-116l-23 23l23 23h116zM196 695l-23 -23h-116l-23 23l23 23h116zM232 386l-23 -24l-23 24v283l23 23l23 -23v-283zM232 50l-23 -24l-23 24v283l23 23l23 -23v-283zM383 23l-23 -23h-116l-23 23l23 23h116zM196 23l-23 -23h-116l-23 23l23 23h116z
M341 778h-33l-92 93v32h33l92 -92v-33zM201 871l-92 -93h-33v33l92 92h33v-32z" />
    <glyph glyph-name="Idieresis" unicode="&#xcf;" 
d="M383 695l-23 -23h-116l-23 23l23 23h116zM196 695l-23 -23h-116l-23 23l23 23h116zM232 386l-23 -24l-23 24v283l23 23l23 -23v-283zM232 50l-23 -24l-23 24v283l23 23l23 -23v-283zM383 23l-23 -23h-116l-23 23l23 23h116zM196 23l-23 -23h-116l-23 23l23 23h116z
M327 842v-43l-23 -23l-23 23v43l23 23zM134 842v-43l-23 -23l-23 23v43l23 23z" />
    <glyph glyph-name="Igrave" unicode="&#xcc;" 
d="M383 695l-23 -23h-116l-23 23l23 23h116zM196 695l-23 -23h-116l-23 23l23 23h116zM232 386l-23 -24l-23 24v283l23 23l23 -23v-283zM232 50l-23 -24l-23 24v283l23 23l23 -23v-283zM383 23l-23 -23h-116l-23 23l23 23h116zM196 23l-23 -23h-116l-23 23l23 23h116z
M193 778h-33l-92 93v32h32l93 -92v-33z" />
    <glyph glyph-name="Oacute" unicode="&#xd3;" 
d="M383 695l-23 -23h-116l-23 23l23 23h116zM418 386l-23 -24l-23 24v283l23 23l23 -23v-283zM196 695l-23 -23h-116l-23 23l23 23h116zM418 50l-23 -24l-23 24v283l23 23l23 -23v-283zM45 386l-23 -24l-23 24v283l23 23l23 -23v-283zM383 23l-23 -23h-116l-23 23l23 23h116
zM45 50l-23 -24l-23 24v283l23 23l23 -23v-283zM196 23l-23 -23h-116l-23 23l23 23h116zM319 871l-92 -93h-33v33l92 92h33v-32z" />
    <glyph glyph-name="Ocircumflex" unicode="&#xd4;" 
d="M383 695l-23 -23h-116l-23 23l23 23h116zM418 386l-23 -24l-23 24v283l23 23l23 -23v-283zM196 695l-23 -23h-116l-23 23l23 23h116zM418 50l-23 -24l-23 24v283l23 23l23 -23v-283zM45 386l-23 -24l-23 24v283l23 23l23 -23v-283zM383 23l-23 -23h-116l-23 23l23 23h116
zM45 50l-23 -24l-23 24v283l23 23l23 -23v-283zM196 23l-23 -23h-116l-23 23l23 23h116zM341 778h-33l-92 93v32h33l92 -92v-33zM201 871l-92 -93h-33v33l92 92h33v-32z" />
    <glyph glyph-name="Ograve" unicode="&#xd2;" 
d="M383 695l-23 -23h-116l-23 23l23 23h116zM418 386l-23 -24l-23 24v283l23 23l23 -23v-283zM196 695l-23 -23h-116l-23 23l23 23h116zM418 50l-23 -24l-23 24v283l23 23l23 -23v-283zM45 386l-23 -24l-23 24v283l23 23l23 -23v-283zM383 23l-23 -23h-116l-23 23l23 23h116
zM45 50l-23 -24l-23 24v283l23 23l23 -23v-283zM196 23l-23 -23h-116l-23 23l23 23h116zM193 778h-33l-92 93v32h32l93 -92v-33z" />
    <glyph glyph-name="Uacute" unicode="&#xda;" 
d="M418 386l-23 -24l-23 24v283l23 23l23 -23v-283zM418 50l-23 -24l-23 24v283l23 23l23 -23v-283zM45 386l-23 -24l-23 24v283l23 23l23 -23v-283zM383 23l-23 -23h-116l-23 23l23 23h116zM45 50l-23 -24l-23 24v283l23 23l23 -23v-283zM196 23l-23 -23h-116l-23 23l23 23
h116zM319 871l-92 -93h-33v33l92 92h33v-32z" />
    <glyph glyph-name="Ucircumflex" unicode="&#xdb;" 
d="M418 386l-23 -24l-23 24v283l23 23l23 -23v-283zM418 50l-23 -24l-23 24v283l23 23l23 -23v-283zM45 386l-23 -24l-23 24v283l23 23l23 -23v-283zM383 23l-23 -23h-116l-23 23l23 23h116zM45 50l-23 -24l-23 24v283l23 23l23 -23v-283zM196 23l-23 -23h-116l-23 23l23 23
h116zM341 778h-33l-92 93v32h33l92 -92v-33zM201 871l-92 -93h-33v33l92 92h33v-32z" />
    <glyph glyph-name="Ugrave" unicode="&#xd9;" 
d="M418 386l-23 -24l-23 24v283l23 23l23 -23v-283zM418 50l-23 -24l-23 24v283l23 23l23 -23v-283zM45 386l-23 -24l-23 24v283l23 23l23 -23v-283zM383 23l-23 -23h-116l-23 23l23 23h116zM45 50l-23 -24l-23 24v283l23 23l23 -23v-283zM196 23l-23 -23h-116l-23 23l23 23
h116zM193 778h-33l-92 93v32h32l93 -92v-33z" />
    <glyph glyph-name="circumflex" unicode="&#x2c6;" horiz-adv-x="374" 
d="M336 778h-33l-92 93v32h33l92 -92v-33zM196 871l-92 -93h-33v33l92 92h33v-32z" />
    <glyph glyph-name="tilde" unicode="&#x2dc;" horiz-adv-x="374" 
d="M418 825l-23 -23l-23 23v130l23 23l23 -23v-130zM383 799l-23 -23h-116l-23 23l23 23h116zM232 825l-23 -23l-23 23v130l23 23l23 -23v-130zM196 981l-23 -23h-116l-23 23l23 23h116zM45 955v-131l-23 -23l-23 23v131l23 23z" />
    <glyph glyph-name="macron" unicode="&#xaf;" horiz-adv-x="374" 
d="M339 799l-23 -23h-204l-23 23l23 23h204z" />
    <glyph glyph-name="macron" unicode="&#x2c9;" horiz-adv-x="374" 
d="M339 799l-23 -23h-204l-23 23l23 23h204z" />
    <glyph glyph-name="cedilla" unicode="&#xb8;" horiz-adv-x="272" 
d="M232 -81l-23 -23l-23 23v72l23 23l23 -23v-72zM196 -108l-23 -23h-54l-23 23l23 23h54z" />
    <glyph glyph-name="Scaron" unicode="&#x160;" 
d="M383 695l-23 -23h-116l-23 23l23 23h116zM196 695l-23 -23h-116l-23 23l23 23h116zM383 359l-23 -23h-116l-23 23l23 23h116zM418 50l-23 -24l-23 24v283l23 23l23 -23v-283zM45 386l-23 -24l-23 24v283l23 23l23 -23v-283zM196 359l-23 -23h-116l-23 23l23 23h116z
M383 23l-23 -23h-116l-23 23l23 23h116zM196 23l-23 -23h-116l-23 23l23 23h116zM336 871l-92 -93h-33v33l92 92h33v-32zM196 811v-33h-33l-92 93v32h33z" />
    <glyph glyph-name="scaron" unicode="&#x161;" 
d="M383 695l-23 -23h-116l-23 23l23 23h116zM196 695l-23 -23h-116l-23 23l23 23h116zM383 359l-23 -23h-116l-23 23l23 23h116zM418 50l-23 -24l-23 24v283l23 23l23 -23v-283zM45 386l-23 -24l-23 24v283l23 23l23 -23v-283zM196 359l-23 -23h-116l-23 23l23 23h116z
M383 23l-23 -23h-116l-23 23l23 23h116zM196 23l-23 -23h-116l-23 23l23 23h116zM336 871l-92 -93h-33v33l92 92h33v-32zM196 811v-33h-33l-92 93v32h33z" />
    <glyph glyph-name="brokenbar" unicode="&#xa6;" 
d="M232 386l-23 -24l-23 24v283l23 23l23 -23v-283zM232 50l-23 -24l-23 24v283l23 23l23 -23v-283z" />
    <glyph glyph-name="Eth" unicode="&#xd0;" 
d="M383 695l-23 -23h-116l-23 23l23 23h116zM418 386l-23 -24l-23 24v283l23 23l23 -23v-283zM196 695l-23 -23h-116l-23 23l23 23h116zM232 386l-23 -24l-23 24v283l23 23l23 -23v-283zM418 50l-23 -24l-23 24v283l23 23l23 -23v-283zM196 359l-23 -23h-116l-23 23l23 23
h116zM232 50l-23 -24l-23 24v283l23 23l23 -23v-283zM383 23l-23 -23h-116l-23 23l23 23h116zM196 23l-23 -23h-116l-23 23l23 23h116z" />
    <glyph glyph-name="eth" unicode="&#xf0;" 
d="M383 695l-23 -23h-116l-23 23l23 23h116zM418 386l-23 -24l-23 24v283l23 23l23 -23v-283zM362 629l-87 -235h-34v31l87 236h34v-32zM196 695l-23 -23h-116l-23 23l23 23h116zM383 359l-23 -23h-116l-23 23l23 23h116zM418 50l-23 -24l-23 24v283l23 23l23 -23v-283z
M196 359l-23 -23h-116l-23 23l23 23h116zM383 23l-23 -23h-116l-23 23l23 23h116zM176 293l-87 -235h-34v32l87 235h34v-32zM45 50l-23 -24l-23 24v283l23 23l23 -23v-283zM196 23l-23 -23h-116l-23 23l23 23h116z" />
    <glyph glyph-name="Yacute" unicode="&#xdd;" 
d="M418 386l-23 -24l-23 24v283l23 23l23 -23v-283zM383 359l-23 -23h-116l-23 23l23 23h116zM45 386l-23 -24l-23 24v283l23 23l23 -23v-283zM196 359l-23 -23h-116l-23 23l23 23h116zM232 50l-23 -24l-23 24v283l23 23l23 -23v-283zM319 871l-92 -93h-33v33l92 92h33v-32z
" />
    <glyph glyph-name="yacute" unicode="&#xfd;" 
d="M418 386l-23 -24l-23 24v283l23 23l23 -23v-283zM383 359l-23 -23h-116l-23 23l23 23h116zM418 50l-23 -24l-23 24v283l23 23l23 -23v-283zM45 386l-23 -24l-23 24v283l23 23l23 -23v-283zM196 359l-23 -23h-116l-23 23l23 23h116zM383 23l-23 -23h-116l-23 23l23 23h116
zM196 23l-23 -23h-116l-23 23l23 23h116zM319 871l-92 -93h-33v33l92 92h33v-32z" />
    <glyph glyph-name="Thorn" unicode="&#xde;" 
d="M383 695l-23 -23h-116l-23 23l23 23h116zM418 386l-23 -24l-23 24v283l23 23l23 -23v-283zM196 695l-23 -23h-116l-23 23l23 23h116zM232 386l-23 -24l-23 24v283l23 23l23 -23v-283zM383 359l-23 -23h-116l-23 23l23 23h116zM232 50l-23 -24l-23 24v283l23 23l23 -23
v-283z" />
    <glyph glyph-name="thorn" unicode="&#xfe;" 
d="M232 386l-23 -24l-23 24v283l23 23l23 -23v-283zM383 359l-23 -23h-116l-23 23l23 23h116zM418 50l-23 -24l-23 24v283l23 23l23 -23v-283zM232 50l-23 -24l-23 24v283l23 23l23 -23v-283zM383 23l-23 -23h-116l-23 23l23 23h116zM196 23l-23 -23h-116l-23 23l23 23h116z
" />
    <glyph glyph-name="minus" unicode="&#xad;" 
d="M383 359l-23 -23h-116l-23 23l23 23h116zM196 359l-23 -23h-116l-23 23l23 23h116z" />
    <glyph glyph-name="minus" unicode="&#x2212;" 
d="M383 359l-23 -23h-116l-23 23l23 23h116zM196 359l-23 -23h-116l-23 23l23 23h116z" />
    <glyph glyph-name="multiply" unicode="&#xd7;" 
d="M362 629l-87 -235h-34v31l87 236h34v-32zM176 394h-34l-87 235v32h34l87 -236v-31zM362 58h-34l-87 235v32h34l87 -235v-32zM176 293l-87 -235h-34v32l87 235h34v-32z" />
    <glyph glyph-name="onesuperior" unicode="&#xb9;" horiz-adv-x="87" 
d="M45 386l-23 -24l-23 24v283l23 23l23 -23v-283z" />
    <glyph glyph-name="twosuperior" unicode="&#xb2;" horiz-adv-x="269" 
d="M232 386l-23 -24l-23 24v283l23 23l23 -23v-283zM45 386l-23 -24l-23 24v283l23 23l23 -23v-283z" />
    <glyph glyph-name="threesuperior" unicode="&#xb3;" horiz-adv-x="269" 
d="M196 695l-23 -23h-116l-23 23l23 23h116zM232 386l-23 -24l-23 24v283l23 23l23 -23v-283zM176 394h-34l-87 235v32h34l87 -236v-31zM196 359l-23 -23h-116l-23 23l23 23h116z" />
    <glyph glyph-name="onehalf" unicode="&#xbd;" 
d="M362 629l-87 -235h-34v31l87 236h34v-32zM418 50l-23 -24l-23 24v283l23 23l23 -23v-283zM45 386l-23 -24l-23 24v283l23 23l23 -23v-283zM232 50l-23 -24l-23 24v283l23 23l23 -23v-283zM176 293l-87 -235h-34v32l87 235h34v-32z" />
    <glyph glyph-name="onequarter" unicode="&#xbc;" 
d="M362 629l-87 -235h-34v31l87 236h34v-32zM418 50l-23 -24l-23 24v283l23 23l23 -23v-283zM45 386l-23 -24l-23 24v283l23 23l23 -23v-283zM362 58h-34l-87 235v32h34l87 -235v-32zM232 50l-23 -24l-23 24v283l23 23l23 -23v-283zM176 293l-87 -235h-34v32l87 235h34v-32z
" />
    <glyph glyph-name="threequarters" unicode="&#xbe;" 
d="M362 629l-87 -235h-34v31l87 236h34v-32zM196 695l-23 -23h-116l-23 23l23 23h116zM232 386l-23 -24l-23 24v283l23 23l23 -23v-283zM176 394h-34l-87 235v32h34l87 -236v-31zM418 50l-23 -24l-23 24v283l23 23l23 -23v-283zM362 58h-34l-87 235v32h34l87 -235v-32z
M196 359l-23 -23h-116l-23 23l23 23h116zM232 50l-23 -24l-23 24v283l23 23l23 -23v-283zM176 293l-87 -235h-34v32l87 235h34v-32z" />
    <glyph glyph-name="Lslash" unicode="&#x141;" 
d="M45 386l-23 -24l-23 24v283l23 23l23 -23v-283zM196 359l-23 -23h-116l-23 23l23 23h116zM383 23l-23 -23h-116l-23 23l23 23h116zM45 50l-23 -24l-23 24v283l23 23l23 -23v-283zM196 23l-23 -23h-116l-23 23l23 23h116z" />
    <glyph glyph-name="lslash" unicode="&#x142;" 
d="M45 386l-23 -24l-23 24v283l23 23l23 -23v-283zM196 359l-23 -23h-116l-23 23l23 23h116zM383 23l-23 -23h-116l-23 23l23 23h116zM45 50l-23 -24l-23 24v283l23 23l23 -23v-283zM196 23l-23 -23h-116l-23 23l23 23h116z" />
    <glyph glyph-name="HT" horiz-adv-x="953" 
 />
    <glyph glyph-name="Zcaron" unicode="&#x17d;" 
d="M383 695l-23 -23h-116l-23 23l23 23h116zM362 629l-87 -235h-34v31l87 236h34v-32zM196 695l-23 -23h-116l-23 23l23 23h116zM383 23l-23 -23h-116l-23 23l23 23h116zM176 293l-87 -235h-34v32l87 235h34v-32zM196 23l-23 -23h-116l-23 23l23 23h116zM336 871l-92 -93
h-33v33l92 92h33v-32zM196 811v-33h-33l-92 93v32h33z" />
    <glyph glyph-name="zcaron" unicode="&#x17e;" 
d="M383 695l-23 -23h-116l-23 23l23 23h116zM362 629l-87 -235h-34v31l87 236h34v-32zM196 695l-23 -23h-116l-23 23l23 23h116zM383 23l-23 -23h-116l-23 23l23 23h116zM176 293l-87 -235h-34v32l87 235h34v-32zM196 23l-23 -23h-116l-23 23l23 23h116zM336 871l-92 -93
h-33v33l92 92h33v-32zM196 811v-33h-33l-92 93v32h33z" />
    <glyph glyph-name="notequal" unicode="&#x2260;" 
d="M383 359l-23 -23h-116l-23 23l23 23h116zM196 359l-23 -23h-116l-23 23l23 23h116zM383 23l-23 -23h-116l-23 23l23 23h116zM176 293l-87 -235h-34v32l87 235h34v-32zM196 23l-23 -23h-116l-23 23l23 23h116z" />
    <glyph glyph-name="infinity" unicode="&#x221e;" 
d="M418 386l-23 -24l-23 24v283l23 23l23 -23v-283zM362 629l-87 -235h-34v31l87 236h34v-32zM176 394h-34l-87 235v32h34l87 -236v-31zM418 50l-23 -24l-23 24v283l23 23l23 -23v-283zM45 386l-23 -24l-23 24v283l23 23l23 -23v-283zM362 58h-34l-87 235v32h34l87 -235v-32
zM176 293l-87 -235h-34v32l87 235h34v-32zM45 50l-23 -24l-23 24v283l23 23l23 -23v-283z" />
    <glyph glyph-name="lessequal" unicode="&#x2264;" horiz-adv-x="298" 
d="M187 629l-87 -235h-34v31l87 236h34v-32zM207 359l-23 -23h-116l-23 23l23 23h116zM207 23l-23 -23h-116l-23 23l23 23h116z" />
    <glyph glyph-name="greaterequal" unicode="&#x2265;" horiz-adv-x="265" 
d="M176 394h-34l-87 235v32h34l87 -236v-31zM196 359l-23 -23h-116l-23 23l23 23h116zM196 23l-23 -23h-116l-23 23l23 23h116z" />
    <glyph glyph-name="partialdiff" unicode="&#x2202;" 
d="M383 695l-23 -23h-116l-23 23l23 23h116zM418 386l-23 -24l-23 24v283l23 23l23 -23v-283zM196 695l-23 -23h-116l-23 23l23 23h116zM383 359l-23 -23h-116l-23 23l23 23h116zM418 50l-23 -24l-23 24v283l23 23l23 -23v-283zM196 359l-23 -23h-116l-23 23l23 23h116z
M383 23l-23 -23h-116l-23 23l23 23h116zM45 50l-23 -24l-23 24v283l23 23l23 -23v-283zM196 23l-23 -23h-116l-23 23l23 23h116z" />
    <glyph glyph-name="summation" unicode="&#x2211;" 
d="M383 695l-23 -23h-116l-23 23l23 23h116zM196 695l-23 -23h-116l-23 23l23 23h116zM176 394h-34l-87 235v32h34l87 -236v-31zM383 23l-23 -23h-116l-23 23l23 23h116zM176 293l-87 -235h-34v32l87 235h34v-32zM196 23l-23 -23h-116l-23 23l23 23h116z" />
    <glyph glyph-name="product" unicode="&#x220f;" 
d="M383 695l-23 -23h-116l-23 23l23 23h116zM418 386l-23 -24l-23 24v283l23 23l23 -23v-283zM196 695l-23 -23h-116l-23 23l23 23h116zM418 50l-23 -24l-23 24v283l23 23l23 -23v-283zM45 386l-23 -24l-23 24v283l23 23l23 -23v-283zM45 50l-23 -24l-23 24v283l23 23
l23 -23v-283z" />
    <glyph glyph-name="pi" unicode="&#x3c0;" 
d="M383 359l-23 -23h-116l-23 23l23 23h116zM418 50l-23 -24l-23 24v283l23 23l23 -23v-283zM196 359l-23 -23h-116l-23 23l23 23h116zM45 50l-23 -24l-23 24v283l23 23l23 -23v-283z" />
    <glyph glyph-name="integral" unicode="&#x222b;" 
d="M383 695l-23 -23h-116l-23 23l23 23h116zM232 386l-23 -24l-23 24v283l23 23l23 -23v-283zM232 50l-23 -24l-23 24v283l23 23l23 -23v-283zM196 23l-23 -23h-116l-23 23l23 23h116z" />
    <glyph glyph-name="Omega" unicode="&#x3a9;" 
d="M383 695l-23 -23h-116l-23 23l23 23h116zM418 386l-23 -24l-23 24v283l23 23l23 -23v-283zM196 695l-23 -23h-116l-23 23l23 23h116zM383 359l-23 -23h-116l-23 23l23 23h116zM45 386l-23 -24l-23 24v283l23 23l23 -23v-283zM362 58h-34l-87 235v32h34l87 -235v-32z
M196 359l-23 -23h-116l-23 23l23 23h116zM176 293l-87 -235h-34v32l87 235h34v-32z" />
    <glyph glyph-name="Omega" unicode="&#x2126;" 
d="M383 695l-23 -23h-116l-23 23l23 23h116zM418 386l-23 -24l-23 24v283l23 23l23 -23v-283zM196 695l-23 -23h-116l-23 23l23 23h116zM383 359l-23 -23h-116l-23 23l23 23h116zM45 386l-23 -24l-23 24v283l23 23l23 -23v-283zM362 58h-34l-87 235v32h34l87 -235v-32z
M196 359l-23 -23h-116l-23 23l23 23h116zM176 293l-87 -235h-34v32l87 235h34v-32z" />
    <glyph glyph-name="radical" unicode="&#x221a;" 
d="M362 629l-87 -235h-34v31l87 236h34v-32zM176 293l-87 -235h-34v32l87 235h34v-32zM45 50l-23 -24l-23 24v283l23 23l23 -23v-283z" />
    <glyph glyph-name="approxequal" unicode="&#x2248;" 
d="M418 386l-23 -24l-23 24v283l23 23l23 -23v-283zM196 695l-23 -23h-116l-23 23l23 23h116zM232 386l-23 -24l-23 24v283l23 23l23 -23v-283zM383 359l-23 -23h-116l-23 23l23 23h116zM418 50l-23 -24l-23 24v283l23 23l23 -23v-283zM45 386l-23 -24l-23 24v283l23 23
l23 -23v-283zM196 359l-23 -23h-116l-23 23l23 23h116zM232 50l-23 -24l-23 24v283l23 23l23 -23v-283zM383 23l-23 -23h-116l-23 23l23 23h116zM45 50l-23 -24l-23 24v283l23 23l23 -23v-283z" />
    <glyph glyph-name="approxequal" unicode="&#x22f2;" 
d="M418 386l-23 -24l-23 24v283l23 23l23 -23v-283zM196 695l-23 -23h-116l-23 23l23 23h116zM232 386l-23 -24l-23 24v283l23 23l23 -23v-283zM383 359l-23 -23h-116l-23 23l23 23h116zM418 50l-23 -24l-23 24v283l23 23l23 -23v-283zM45 386l-23 -24l-23 24v283l23 23
l23 -23v-283zM196 359l-23 -23h-116l-23 23l23 23h116zM232 50l-23 -24l-23 24v283l23 23l23 -23v-283zM383 23l-23 -23h-116l-23 23l23 23h116zM45 50l-23 -24l-23 24v283l23 23l23 -23v-283z" />
    <glyph glyph-name="Delta" unicode="&#x394;" 
d="M362 58h-34l-87 235v32h34l87 -235v-32zM383 23l-23 -23h-116l-23 23l23 23h116zM176 293l-87 -235h-34v32l87 235h34v-32zM196 23l-23 -23h-116l-23 23l23 23h116z" />
    <glyph glyph-name="Delta" unicode="&#x2206;" 
d="M362 58h-34l-87 235v32h34l87 -235v-32zM383 23l-23 -23h-116l-23 23l23 23h116zM176 293l-87 -235h-34v32l87 235h34v-32zM196 23l-23 -23h-116l-23 23l23 23h116z" />
    <glyph glyph-name="lozenge" unicode="&#x25ca;" horiz-adv-x="899" 
d="M730 585q-3 -2 -8 -7l-2 1l6 13q3 -3 4 -6v-1zM625 661q-1 -3 -6 -3h-4h-3q-4 0 -3 1q-5 4 -5 7t2 6zM756 320q-2 -2 -23.5 -2t-22.5 -15h-8q-4 1 -11.5 -0.5t-11.5 -1.5q-7 0 -13 2q2 1 7 9.5t9 8.5t7 -2.5t5 -2.5q5 0 5 20q0 5 12.5 13.5t18.5 8.5q5 0 10 -4l-7 -9v-1
l10 -11l7 11l6 -7q-2 -3 -6 -8v1v-3zM650 317l-11 -14q-2 1 -4 1q-3 0 -16 -10l-3 3q5 2 14 11t17 9h3zM824 391l-3 1q-9 -5 -27 -11l2 -17q-3 -1 -6 -1q-20 0 -57 48q0 23 -14 54q-19 41 -22 53q-11 3 -29 27.5t-32 28.5q-5 5 -30 9q-20 3 -24 16q-6 5 -26.5 7.5
t-27.5 11.5q-9 1 -19 1q-16 0 -49 -3.5t-49 -3.5l-6 6q-1 -3 -15 -4t-14 -5t8 -10q-1 -4 -16 -5.5t-16 -12.5l-21 -7l1 4q1 14 -23 14h-4q-1 -14 -7 -34q38 -40 60 -40q4 9 12 9q5 0 14 -3t14 -3q11 0 17 10l68 5q43 -18 70 -61t27 -91q-18 -20 -18 -55q0 -17 4 -32
q5 -2 14 -7h-2q-33 -4 -39 11q-20 3 -29 3q-13 0 -25 -7q-7 21 -14 21q-4 0 -8 -4h-1q-5 0 -13 -7l3 -6q-6 0 -14 -4q0 3 4 6.5t4 6.5q0 7 -15 7h-4h-5l-4 -5q0 -3 5.5 -8t5.5 -7q0 -4 -4 -7q-14 18 -20 18t-11.5 -6t-8.5 -6q-2 0 -4 1v20q-12 1 -24.5 2.5t-15.5 13.5
q-1 1 -4 1q-14 0 -16 -20q-2 -23 -9 -27q1 -13 12 -13q4 0 11 1.5t11 1.5q12 0 9 -20l18 -27q9 -16 11 -30l-6 -7q-9 4 -12.5 21t-5.5 17q-5 0 -15 -11q-3 10 -11 10h-14q-6 0 -6 -1q-14 -20 -34 -20q-3 0 -6 1q15 1 31 19q-8 11 -27 21l-7 -13l-10 3q11 5 11 9q0 2 -1 5
q-5 3 -24 3t-19 19q2 4 2 7q-3 4 -7 4q-5 0 -12.5 -6.5t-9.5 -6.5l13 -14q-6 -6 -6 -39q0 -20 -21 -21v-10l-20 6q3 4 19 11t16 16q0 3 -8 7.5t-7 9.5l-6 1q-4 0 -4 -4q0 -2 1.5 -6.5t1.5 -6.5q0 -3 -3 -4q-11 5 -17 9v4q0 13 16.5 25.5t16.5 19.5q0 6 -6 16l-23 3
q-4 3 -4 7q0 12 14 16l-7 7l-17 -16v1q0 3 -3 5h-2q-9 0 -14 -20l-4 4q6 2 6 9q0 15 -38 15q-3 0 -8 -1q-10 2 -10 20q7 4 14 13l-8 10q-9 -5 -13 -10q-20 24 -40 24q9 4 13 10q-9 0 -16 12.5t-14 13.5q8 10 24 20q3 -7 14 -16q18 2 19 13q-13 26 -24 37l24 3q-3 2 -4 12
t-7 12q9 4 16 34q5 24 29 20v2q-1 16 22.5 30t23.5 28l14 13l-14 14q3 8 17 12t17 8q7 -7 14 -7t20 8t20 9q4 7 24 15.5t25 17.5q13 -3 25 -3q17 0 50.5 10.5t50.5 10.5q9 0 18 -2q8 7 16 7q1 0 32 -7v-4q0 -8 13 -8q7 0 10 3q2 -7 10 -17l3 17h4q14 0 43 -24h-1
q-7 0 -18 5.5t-17 5.5q-7 0 -11 -7l-3 3q-4 -2 -4 -8v-5l18 -13q-6 0 -11 -6q3 -3 7 -6t7 -3q6 0 13 9t12 9q4 0 8 -3q4 -18 31 -34q34 -20 40 -27q4 1 8 1q8 0 28 -13.5t35 -13.5q3 -5 3 -10q0 -3 -2 -8.5t-2 -8.5q0 -5 7 -10q58 -4 80 -47q-2 -4 -2 -7q0 -7 6 -17t6 -11
q0 -7 -13 -9q-11 -21 -11 -23q0 -4 1 -7q10 0 24 -12q17 -16 23 -18zM841 41q0 -20 -29 -20q-27 0 -33 15q19 30 33 30q15 0 15 -14q0 -4 -6 -6q-9 -3 -9 -4q-3 0 -7 1h-7q-7 0 -10 -5q1 -8 14 -12q17 2 21 3q12 3 14 12l-2 13q6 -3 6 -13zM776 70q0 -5 -6.5 -15.5
t-7.5 -15.5q-5 -5 -12.5 -18.5t-21.5 -20.5q10 19 23 41q-1 3 -9.5 13.5t-8.5 15.5q0 4 1 6q7 -10 24 -24q4 10 13 22l5 -2v-2zM724 25q-9 5 -16 5q-10 0 -29 -8q-1 0 -7 48q5 4 20 8t19 13q-2 4 -6 6l-2 -2l4 3q6 -3 6 -11q0 -11 -16.5 -16t-16.5 -10q0 -4 4 -10l13 3l3 -1
q-8 -2 -19 -13q2 -6 5 -8l5 -1q3 0 9 2t9 2q10 0 15 -10zM378 281l-16 -7q0 12 -12.5 16t-24.5 7q12 4 20 4q19 0 33 -20zM624 41q0 -20 -28 -20q-27 0 -34 15q19 30 34 30q12 0 15 -14q0 -2 -15 -10q-3 0 -7 1h-7q-7 0 -11 -5q3 -8 15 -12q17 2 21 3q12 3 14 12l-2 13
q5 -4 5 -13zM559 38q0 -7 -4 -15h-3q2 3 2 8q0 9 -5 16q-5 3 -10 4l-6 -2q-2 -4 -2 -9q0 -4 1 -9.5t1 -8.5h-3q-7 25 -7 32t3 14l2 -3v-3l2 -3l3 -1q12 5 15 5h1q10 -12 10 -25zM422 155q0 -4 -3 -5t-8 -1q0 8 -7 10q-10 2 -12 4q0 6 6 6q8 0 13 -10l4 4q2 -3 7 -8zM519 61
q0 -12 -7 -36q-7 -6 -16 -6q-26 0 -26 35q0 11 7 25.5t17 14.5q11 0 25 -25v-8zM53 501q-19 -6 -20 -6q-4 0 -7 6l14 14zM358 146h-13v3q-19 -3 -39 -3q-26 0 -41 7q2 5 7 5q4 0 12 -3.5t13 -3.5q4 0 8 2q7 17 18 17q9 0 20 -11t15 -13zM241 233q-2 -4 -6 -4q-10 0 -11 11
h14q0 -4 3 -7zM278 176l-7 -6q-4 3 -4 5q0 6 7 9q4 -3 4 -8zM421 36q-10 -16 -20 -16q-14 0 -14 20v5q0 13 15 21q8 -4 19 -15l-1 -4l-3 -3q0 5 -4.5 7t-6.5 2l-11 -1q-4 -2 -4 -10q0 -14 13 -14q7 0 13 7zM378 63q-1 -2 -4 -5l-1 3l1 4l2 2l2 -2v-2zM228 203l-14 3h10z
M384 29q0 -2 -2 -7q-3 12 -7 25q0 4 2 8q7 -18 7 -26zM370 66q-13 -7 -26 -13q-3 -3 -3 -34h-4q-2 14 -4 29.5t-17 17.5l-1 3q7 -2 17 -3q-1 9 -1 11q0 11 9 17q3 -2 3 -8q0 -4 -1.5 -10.5t-1.5 -9.5q21 1 22 1t8 -1zM127 276v-5q0 -4 -4 -4q-3 0 -6 3q6 4 9 7zM21 361
q0 -1 -1 -4l-4 -3q-5 3 -13 10q0 3 3 7q15 -7 15 -10zM312 51v-9q0 -13 -4 -21q-1 4 -5 6h-2q-3 -3 -13 -5q-3 3 -3 7q0 2 1 6t1 6q6 4 18 4v3q0 1 -2 5l-4 4h-7q-5 0 -7 -4v-2l-2 4v1q11 11 18 11q3 0 11 -16zM279 40q0 -7 -3 -16h-4q2 4 2 9q0 8 -6 17q-6 3 -10 3l-4 -2
q4 -5 4 -10q0 -9 -10 -20q-1 9 -2 19.5t-8 13.5h-3q-5 0 -7 -3v-9q1 -5 1 -8q0 -4 -4 -6h-4l-4 37h3q2 -2 5 -6q5 2 17 6l5 -2l5 -9v7q13 5 16 5v0q11 -13 11 -26zM214 64q-1 -29 -2 -34q-4 -20 -18 -26q-4 0 -12.5 -1.5t-12.5 -1.5q-5 0 -11 3q-1 2 -1 6q0 20 21 20
q6 0 10 -3l2 -3l-1 -3q-8 -7 -15 -7l-3 3h5q4 0 9 6q-4 3 -10 3q-4 0 -8 -2q-6 -8 -6 -13q11 -6 17 -6q8 0 19 7t11 15v10h-3q-3 0 -8.5 -1.5t-8.5 -1.5q-6 0 -9 5v-1q-1 2 -1 10v12q0 16 15 16q13 0 21 -12zM149 63q0 -3 -4 -5l-2 3l1 4l3 2l2 -2v-2zM156 28l-3 -6
q-6 25 -6 26q0 3 1 7q4 -3 5 -14t3 -13zM140 66q-1 -1 -17 -8q-11 -5 -12 -17q1 5 1 -22h-4q-1 2 -3 27q-2 18 -18 20v3q6 -2 15 -3q0 22 9 28q3 -2 3 -8q0 -7 -2 -11l-1 -9l22 1q1 0 7 -1zM83 61l-1 -9q-5 6 -13 6q-2 0 -10 -1l-3 -5q22 -14 22 -21q0 -3 -1 -7
q-6 -3 -12 -3q-9 0 -17 8t-14 7l1 3q4 1 6 1q4 0 12 -4.5t10 -5.5q4 1 6 3q-1 4 -13 11t-12 11q0 5 7 12h12q14 0 20 -6zM30 51q-4 -11 -4 -32q-7 14 -7 22q-3 3 -4 3q-3 0 -7 -1q-4 -4 -4 -17q-4 7 -4 16t5 35q5 5 10 17q6 -2 11 -20q-1 -10 -1 -13q0 -6 4 -10h1zM533 399
q0 8 -11 15q-14 8 -16 11l-18.5 -12.5t-8.5 -23.5q0 -2 -1 -6v-7q0 -19 27 -19q13 0 17 10v6q0 3 -3 4q14 16 14 22zM812 51v6l-2 1h-4q-6 -2 -11 -7l1 -1l10 -1q2 0 6 2zM341 508q-1 1 -4 1q-2 0 -6.5 -2t-6.5 -2q-4 0 -6.5 8.5t-15.5 8.5h-8q3 -3 3 -7t-6 -12t-6 -13
q0 -2 2 -6q9 7 17 7t10 -7q-2 -2 -2 -6q2 3 6 3q2 0 6.5 -1.5t6.5 -1.5q4 0 7 4v1q0 2 -6 5.5t-7 6.5zM235 555l-7 13h-7zM221 552h-6q-5 5 -14 10q-2 -21 -7 -21q-4 0 -9 3q0 -5 7 -5q4 0 13 5.5t16 7.5zM294 468l-7 6l-9 -10l-4 4l-3 -17q4 -1 5 -1q4 0 8.5 9t9.5 9z
M185 556q0 9 -13 9h-2l-1 -5q0 -4 7 -5t8 -3zM298 437h-17l6 -12zM224 525l-3 3q-4 0 -14 -4.5t-16 -4.5q-9 0 -17 9h-2q-3 0 -7.5 2t-7.5 2q-5 0 -7 -7l20 -10q5 0 14 -1t13 -1q18 0 27 12zM321 333v11h-3v-11h3zM596 51v6l-3 1h-4q-9 -5 -9 -8q8 -1 9 -1q3 0 7 2zM308 320
v4l-7 6zM178 476q0 3 -11 14l3 5q-8 7 -20 20q-7 4 -16 4q-10 0 -29 -8.5t-28 -9.5q0 -8 -4 -11q13 -4 18 -20t9 -16q5 0 13 7q5 -5 8 -5t9.5 8t11.5 8q1 0 9 -9l-1 -2q17 10 27 13zM251 354v9q0 3 -3 4h-1l-12 -13h16zM330 262q0 4 -10 7t-12 7q0 -19 19 -19zM187 374
q-2 -3 -7 -3h-3q-7 4 -7 16h-6q-1 4 -8.5 12.5t-7.5 14.5q0 4 2 7q-3 2 -7 2q-10 0 -10 -13q0 -15 13.5 -16.5t16 -11t7.5 -25.5q9 5 17 17zM510 69q0 5 -7 10l-1 -15q-2 5 -8 12q-14 -6 -14 -23q0 -23 13 -23h4q13 9 13 39zM113 428q-1 9 -6 9l-3 -9h9zM117 404q0 6 -9.5 7
t-10.5 6v-17h10q6 0 10 4zM134 357q-16 0 -21 3v-7v-2q0 -11 11 -14q5 4 6 11t4 9zM303 35q0 5 -6 6l-4 -2l-2 -5v-1l3 -2q9 1 9 4zM206 54q0 10 -13 10q-9 -6 -9 -16l1 -5l8 -1q13 0 13 12zM16 53q-1 5 -2 11l-3 2q-2 -4 -4 -12l1 -3q5 0 8 2z" />
    <glyph glyph-name="fraction" unicode="&#x2044;" 
d="M362 629l-87 -235h-34v31l87 236h34v-32zM176 293l-87 -235h-34v32l87 235h34v-32z" />
    <glyph glyph-name="fi" unicode="&#xf001;" 
d="M196 695l-23 -23h-116l-23 23l23 23h116zM383 359l-23 -23h-116l-23 23l23 23h116zM418 50l-23 -24l-23 24v283l23 23l23 -23v-283zM45 386l-23 -24l-23 24v283l23 23l23 -23v-283zM196 359l-23 -23h-116l-23 23l23 23h116zM45 50l-23 -24l-23 24v283l23 23l23 -23v-283z
" />
    <glyph glyph-name="fl" unicode="&#xf002;" 
d="M418 386l-23 -24l-23 24v283l23 23l23 -23v-283zM196 695l-23 -23h-116l-23 23l23 23h116zM418 50l-23 -24l-23 24v283l23 23l23 -23v-283zM45 386l-23 -24l-23 24v283l23 23l23 -23v-283zM196 359l-23 -23h-116l-23 23l23 23h116zM45 50l-23 -24l-23 24v283l23 23
l23 -23v-283z" />
    <glyph glyph-name="apple" unicode="&#xf000;" 
d="M362 629l-87 -235h-34v31l87 236h34v-32zM383 359l-23 -23h-116l-23 23l23 23h116zM362 58h-34l-87 235v32h34l87 -235v-32zM196 359l-23 -23h-116l-23 23l23 23h116zM383 23l-23 -23h-116l-23 23l23 23h116zM45 50l-23 -24l-23 24v283l23 23l23 -23v-283zM196 23
l-23 -23h-116l-23 23l23 23h116z" />
    <glyph glyph-name="dotlessi" unicode="&#x131;" 
d="M383 695l-23 -23h-116l-23 23l23 23h116zM196 695l-23 -23h-116l-23 23l23 23h116zM232 386l-23 -24l-23 24v283l23 23l23 -23v-283zM232 50l-23 -24l-23 24v283l23 23l23 -23v-283zM383 23l-23 -23h-116l-23 23l23 23h116zM196 23l-23 -23h-116l-23 23l23 23h116z" />
    <glyph glyph-name="breve" unicode="&#x2d8;" horiz-adv-x="374" 
d="M330 825l-23 -23l-23 23v130l23 23l23 -23v-130zM295 799l-23 -23h-116l-23 23l23 23h116zM144 825l-23 -23l-23 23v130l23 23l23 -23v-130z" />
    <glyph glyph-name="dotaccent" unicode="&#x2d9;" horiz-adv-x="320" 
d="M284 827l-23 -23l-23 23v42l23 23l23 -23v-42zM249 895l-23 -23h-28l-23 23l23 23h28zM249 801l-23 -23h-28l-23 23l23 23h28zM186 827l-23 -23l-24 23v42l24 23l23 -23v-42z" />
    <glyph glyph-name="ring" unicode="&#x2da;" horiz-adv-x="338" 
d="M298 827l-23 -23l-24 23v73l24 23l23 -23v-73zM262 926l-23 -23h-54l-23 23l23 23h54zM173 827l-24 -23l-23 23v73l23 23l24 -23v-73zM262 801l-23 -23h-54l-23 23l23 23h54z" />
    <glyph glyph-name="hungarumlaut" unicode="&#x2dd;" horiz-adv-x="443" 
d="M402 871l-92 -93h-33v33l93 92h32v-32zM227 871l-93 -93h-32v33l92 92h33v-32z" />
    <glyph glyph-name="ogonek" unicode="&#x2db;" horiz-adv-x="362" 
d="M232 -81l-23 -23l-23 23v72l23 23l23 -23v-72zM321 -108l-23 -23h-54l-23 23l23 23h54z" />
    <glyph glyph-name="caron" unicode="&#x2c7;" horiz-adv-x="374" 
d="M336 871l-92 -93h-33v33l92 92h33v-32zM196 811v-33h-33l-92 93v32h33z" />
  </font>
</defs>
</svg>
